<svg xmlns="http://www.w3.org/2000/svg" xmlns:xlink="http://www.w3.org/1999/xlink" width="1024" zoomAndPan="magnify" viewBox="0 0 768 767.999994" height="1024" preserveAspectRatio="xMidYMid meet" version="1.0"><path fill="#000000" d="M 200.339844 254.082031 C 200.328125 254.023438 200.328125 254.007812 200.339844 254.082031 Z M 200.273438 399.574219 C 204.628906 405.050781 208.734375 410.808594 212.101562 416.953125 C 212.691406 418.027344 213.257812 419.117188 213.789062 420.21875 C 214.070312 420.792969 214.328125 421.371094 214.597656 421.949219 C 214.671875 422.113281 214.71875 422.207031 214.746094 422.265625 C 214.777344 422.347656 214.824219 422.472656 214.894531 422.652344 C 215.664062 424.609375 216.34375 426.597656 216.867188 428.640625 C 220.878906 444.230469 215.882812 460.472656 214.285156 476.054688 C 213.273438 485.914062 213.6875 496.011719 217.582031 505.246094 C 221.496094 514.527344 228.390625 521.929688 236.359375 527.929688 C 270.191406 553.394531 315.347656 545.660156 354.675781 549.398438 C 365.320312 550.410156 375.792969 552.546875 385.886719 556.109375 C 395.445312 559.480469 404.554688 563.953125 413.566406 568.566406 C 422.78125 573.277344 431.914062 578.183594 441.34375 582.453125 C 451.449219 587.023438 461.871094 590.726562 472.496094 593.859375 C 483.214844 597.03125 494.050781 599.992188 504.929688 602.558594 C 515.875 605.144531 527.324219 607.097656 538.605469 606.054688 C 547.710938 605.210938 556.78125 602.625 564.542969 597.679688 C 571.800781 593.058594 578.898438 585.957031 581.085938 577.382812 C 583.253906 568.886719 580.363281 558.605469 570.566406 557.074219 C 567.722656 556.628906 564.800781 556.636719 561.933594 556.359375 C 561.640625 556.3125 561.34375 556.269531 561.046875 556.21875 C 560.140625 556.070312 559.230469 555.894531 558.324219 555.699219 C 556.078125 555.214844 553.859375 554.597656 551.679688 553.886719 C 550.515625 553.511719 549.367188 553.101562 548.21875 552.671875 C 546.546875 552.042969 545.746094 551.710938 544.777344 551.28125 C 541.550781 549.863281 538.394531 548.269531 535.308594 546.558594 C 517.976562 536.929688 502.964844 523.59375 488.613281 510.054688 C 475.140625 497.347656 462.347656 483.925781 450.136719 470.011719 C 442.695312 461.523438 435.464844 452.855469 428.523438 443.957031 C 428.496094 443.925781 428.476562 443.902344 428.460938 443.875 C 428.492188 443.917969 428.523438 443.960938 428.554688 444.003906 C 428.5 443.929688 428.445312 443.859375 428.390625 443.792969 C 428.058594 443.367188 428.105469 443.417969 428.246094 443.605469 C 428.160156 443.488281 428.074219 443.375 427.984375 443.257812 C 427.699219 442.890625 427.421875 442.519531 427.140625 442.152344 C 426.636719 441.488281 426.140625 440.816406 425.644531 440.152344 C 421.332031 434.390625 416.9375 428.691406 412.453125 423.0625 C 389.734375 394.511719 364.71875 367.820312 338.007812 342.972656 C 332.210938 337.582031 326.332031 332.28125 320.382812 327.066406 C 320.453125 326.871094 320.519531 326.679688 320.570312 326.472656 C 324.089844 312.210938 313.796875 300.097656 307.226562 288.480469 C 301.050781 277.558594 295.824219 266.125 291.308594 254.421875 C 282.023438 230.367188 275.425781 205.394531 268.398438 180.617188 C 261.351562 155.792969 253.796875 131.019531 242.910156 107.558594 C 234.21875 88.828125 223.070312 72.011719 209.179688 56.730469 C 192.121094 37.96875 172.207031 21.839844 151.230469 7.667969 C 148.171875 5.601562 145.085938 3.585938 141.972656 1.597656 C 139.464844 -0.00390625 135.894531 1.078125 134.433594 3.578125 C 132.875 6.234375 133.894531 9.507812 136.410156 11.113281 C 157.851562 24.796875 178.144531 40.394531 195.886719 58.675781 C 209.496094 72.695312 220.253906 86.984375 229.234375 104.574219 C 252.1875 149.535156 260.257812 200.097656 276.988281 247.367188 C 281.703125 260.679688 287.085938 273.804688 293.5625 286.363281 C 296.855469 292.746094 300.554688 298.847656 304.277344 304.980469 C 306.898438 309.300781 309.960938 314.3125 310.285156 319.503906 C 304.25 318.90625 298.859375 316.066406 293.96875 311.84375 C 287.148438 305.960938 281.800781 298.722656 276.839844 291.273438 C 263.265625 270.898438 249.753906 250.484375 236.210938 230.085938 C 228.59375 218.609375 220.976562 207.136719 213.355469 195.664062 C 212.695312 194.667969 211.773438 193.90625 210.738281 193.445312 C 211.035156 191.398438 211.351562 189.351562 211.683594 187.308594 C 212.363281 183.152344 213.117188 179.011719 213.914062 174.871094 C 214.480469 171.957031 213.09375 168.925781 210.066406 168.09375 C 207.367188 167.355469 203.855469 169.007812 203.289062 171.941406 C 198.90625 194.613281 195.089844 218.632812 198.125 241.742188 C 198.558594 245.046875 199.15625 248.285156 199.851562 251.539062 C 200.019531 252.324219 200.15625 253.109375 200.292969 253.898438 C 200.324219 254.082031 200.351562 254.273438 200.382812 254.453125 C 200.457031 255.125 200.53125 255.796875 200.585938 256.464844 C 200.847656 259.660156 200.847656 262.894531 200.492188 266.078125 C 200.113281 269.523438 199.171875 272.902344 197.957031 276.140625 C 197.800781 276.554688 197.628906 276.96875 197.476562 277.382812 C 197.433594 277.492188 197.410156 277.558594 197.398438 277.601562 C 197.363281 277.675781 197.308594 277.785156 197.230469 277.949219 C 196.675781 279.136719 196.101562 280.300781 195.414062 281.414062 C 195.171875 281.808594 194.914062 282.203125 194.640625 282.585938 C 194.648438 282.542969 193.933594 283.410156 193.800781 283.542969 C 193.648438 283.699219 192.820312 284.375 192.867188 284.378906 C 192.722656 284.472656 192.574219 284.574219 192.421875 284.65625 C 192.304688 284.71875 192.25 284.757812 192.226562 284.78125 C 192.175781 284.796875 192.125 284.816406 192.058594 284.84375 C 191.457031 285.074219 191.039062 285.105469 190.039062 284.808594 C 189.097656 284.523438 188.046875 283.9375 186.890625 283.066406 C 187.050781 283.175781 186.238281 282.503906 186.117188 282.394531 C 185.660156 281.988281 185.222656 281.558594 184.792969 281.128906 C 184.125 280.453125 183.492188 279.746094 182.871094 279.03125 C 182.296875 278.359375 182.824219 279.046875 182.316406 278.34375 C 181.933594 277.804688 181.578125 277.257812 181.238281 276.691406 C 180.902344 276.136719 180.589844 275.566406 180.296875 274.988281 C 180.171875 274.742188 180.054688 274.488281 179.933594 274.234375 C 179.878906 274.113281 179.859375 274.078125 179.851562 274.078125 C 179.832031 274.015625 179.796875 273.917969 179.738281 273.761719 C 177.742188 268.4375 177.546875 264.121094 177.746094 258.234375 C 178.21875 244.148438 181.289062 230.277344 181.9375 216.195312 C 183.121094 190.332031 178.339844 164.21875 168.976562 140.128906 C 168.300781 138.390625 167.59375 136.660156 166.878906 134.941406 C 166.980469 133.914062 166.746094 132.804688 166.042969 131.675781 C 157.59375 118.035156 155.210938 101.199219 159.597656 85.765625 C 161.542969 78.933594 150.910156 76.011719 148.96875 82.835938 C 147.601562 87.660156 146.785156 92.601562 146.511719 97.558594 C 142.832031 92.277344 138.878906 87.167969 134.613281 82.253906 C 131.921875 79.148438 129.121094 76.144531 126.238281 73.214844 C 121.257812 68.148438 113.464844 75.945312 118.445312 81.007812 C 129.082031 91.828125 138.386719 103.796875 145.949219 116.960938 C 148.042969 120.601562 149.980469 124.320312 151.804688 128.097656 C 152.453125 129.625 153.152344 131.136719 153.917969 132.621094 C 154.390625 133.660156 154.863281 134.699219 155.324219 135.742188 C 155.675781 136.542969 156.019531 137.347656 156.367188 138.152344 C 156.390625 138.199219 156.40625 138.238281 156.421875 138.273438 C 156.449219 138.339844 156.476562 138.414062 156.519531 138.515625 C 156.738281 139.039062 156.957031 139.570312 157.171875 140.097656 C 166.761719 163.671875 171.886719 188.996094 170.980469 214.488281 C 170.464844 229.160156 167.21875 243.578125 166.722656 258.234375 C 166.328125 269.972656 168.945312 281.328125 177.726562 289.636719 C 182.820312 294.457031 189.722656 297.796875 196.628906 294.8125 C 202.40625 292.320312 205.589844 286.460938 207.859375 280.914062 C 212.285156 270.101562 212.648438 258.46875 210.15625 247.160156 C 209.808594 245.597656 209.515625 244.019531 209.265625 242.441406 C 209.199219 242.027344 209.144531 241.609375 209.078125 241.195312 C 209.074219 241.167969 209.070312 241.148438 209.066406 241.125 C 209.0625 241.085938 209.058594 241.046875 209.050781 240.996094 C 208.9375 240.019531 208.820312 239.042969 208.726562 238.0625 C 208.300781 233.605469 208.152344 229.121094 208.175781 224.648438 C 208.210938 219.390625 208.484375 214.136719 208.933594 208.894531 C 221.285156 227.5 233.640625 246.109375 245.992188 264.714844 C 253.101562 275.417969 260.191406 286.144531 267.320312 296.839844 C 272.648438 304.835938 278.4375 312.796875 285.667969 319.191406 C 291.859375 324.675781 299.25 329.019531 307.335938 330.292969 C 336.613281 355.566406 364.171875 382.835938 389.308594 412.246094 C 403.128906 428.410156 414.695312 444.574219 428.09375 460.984375 C 449.992188 487.804688 474.027344 513.203125 500.578125 535.46875 C 518.847656 550.792969 541.144531 566.46875 565.859375 567.679688 C 566.132812 567.691406 566.40625 567.699219 566.683594 567.714844 C 567.226562 567.742188 567.875 567.730469 568.40625 567.816406 C 568.917969 567.902344 569.410156 568.054688 569.902344 568.222656 C 569.378906 568.042969 570.191406 568.867188 569.839844 568.273438 C 569.921875 568.414062 570.367188 569.09375 570.007812 568.390625 C 570.148438 568.671875 570.335938 568.929688 570.480469 569.207031 C 570.371094 569.042969 570.710938 570.140625 570.808594 570.589844 C 570.753906 570.398438 570.828125 571.847656 570.8125 572.214844 C 570.765625 573.390625 570.746094 573.316406 570.457031 574.453125 C 568.75 581.148438 561.867188 586.875 555.460938 590.183594 C 537.625 599.402344 516.726562 594.375 498.402344 589.539062 C 477.695312 584.078125 457.363281 578.269531 438.105469 568.75 C 419.738281 559.675781 401.886719 549.09375 382.101562 543.316406 C 342.410156 531.71875 299.390625 543.347656 260.378906 528.585938 C 244.097656 522.421875 227.753906 510.125 225.199219 491.8125 C 222.5625 472.894531 230.933594 454.230469 229.089844 435.25 C 228.109375 425.152344 224.605469 416.007812 219.285156 407.386719 C 209.507812 391.554688 196.476562 377.542969 183.511719 364.300781 C 156.582031 336.800781 126.238281 312.683594 94.390625 291.136719 C 87.96875 286.792969 81.472656 282.550781 74.914062 278.410156 C 68.898438 274.613281 63.363281 284.144531 69.351562 287.929688 C 100.355469 307.503906 130.015625 329.3125 157.078125 354.09375 C 172.476562 368.191406 187.269531 383.214844 200.273438 399.574219 " fill-opacity="1" fill-rule="nonzero"/><path fill="#000000" d="M 428.460938 443.875 C 428.386719 443.777344 428.308594 443.679688 428.246094 443.605469 C 428.296875 443.667969 428.34375 443.726562 428.390625 443.792969 C 428.414062 443.8125 428.4375 443.847656 428.460938 443.875 " fill-opacity="1" fill-rule="nonzero"/><path fill="#000000" d="M 634.175781 527.390625 C 632.835938 528.429688 631.46875 529.425781 630.070312 530.367188 C 630.207031 530.085938 630.339844 529.8125 630.476562 529.53125 C 632.976562 524.363281 635.042969 518.960938 636.558594 513.417969 C 639.550781 502.480469 640.613281 490.914062 639.746094 479.609375 C 639.242188 473 638.121094 466.4375 636.410156 460.050781 C 637.53125 459.851562 638.628906 459.335938 639.585938 458.570312 C 650.019531 450.214844 663.152344 445.761719 676.429688 445.441406 C 675.933594 456.316406 675.007812 467.367188 670.828125 477.492188 C 666.261719 488.578125 657.257812 497.078125 653.238281 508.441406 C 653.207031 508.484375 653.164062 508.515625 653.132812 508.5625 C 653.125 508.570312 653.113281 508.582031 653.109375 508.589844 C 652.890625 508.8125 652.6875 509.054688 652.5 509.320312 C 647.0625 515.960938 640.960938 522.125 634.175781 527.390625 Z M 566.632812 522.371094 C 549.007812 509.117188 536.644531 488.867188 534.492188 466.757812 C 533.878906 460.457031 533.917969 453.984375 534.972656 447.730469 C 535.503906 444.5625 536.101562 441.230469 537.246094 438.21875 C 537.269531 438.160156 537.3125 438.0625 537.371094 437.957031 C 538.480469 438.410156 540.339844 439.230469 540.609375 439.339844 C 550.714844 443.605469 561.6875 448.84375 567.316406 458.617188 C 567.933594 459.6875 568.738281 460.394531 569.613281 460.816406 C 569.160156 462.539062 568.75 464.28125 568.394531 466.027344 C 564.40625 485.984375 567.644531 507.074219 578.480469 524.433594 C 580.382812 527.480469 582.503906 530.375 584.824219 533.101562 C 578.382812 530.21875 572.273438 526.609375 566.632812 522.371094 Z M 587.839844 444.851562 C 592.109375 437.050781 597.421875 429.972656 603.582031 423.621094 C 629.671875 450.042969 636.953125 493.4375 619.796875 526.289062 C 617.585938 530.519531 614.964844 535.132812 610.78125 537.53125 C 609.953125 538.003906 609.089844 538.335938 608.199219 538.566406 C 607.996094 538.40625 607.777344 538.25 607.539062 538.105469 C 592.636719 529.308594 582.914062 513.949219 579.210938 497.167969 C 575.339844 479.632812 579.144531 460.765625 587.839844 444.851562 Z M 681.910156 519.824219 C 676.355469 516.074219 670.464844 512.859375 664.449219 509.917969 C 666.320312 505.449219 669.113281 501.40625 671.847656 497.410156 C 675.59375 491.933594 679.058594 486.464844 681.515625 480.265625 C 686.546875 467.558594 687.140625 453.542969 687.675781 440.042969 C 687.804688 436.925781 685.046875 434.722656 682.164062 434.535156 C 664.480469 433.371094 647.074219 439.042969 633.089844 449.757812 C 628.628906 438.050781 622.054688 427.175781 613.445312 417.929688 C 611.53125 415.878906 609.507812 413.929688 607.40625 412.070312 C 605.117188 410.046875 601.902344 409.933594 599.613281 412.070312 C 588.714844 422.242188 579.636719 434.753906 573.804688 448.574219 C 567.425781 440.410156 558.140625 435.085938 548.699219 430.917969 C 545.722656 429.605469 542.644531 428 539.515625 427.113281 C 535.234375 425.890625 531.09375 427.472656 528.585938 431.101562 C 526.8125 433.664062 526.050781 436.953125 525.332031 439.949219 C 524.511719 443.390625 523.960938 446.890625 523.570312 450.410156 C 522.984375 455.617188 522.933594 460.839844 523.355469 466.011719 C 505.203125 461.871094 486.984375 458.023438 468.730469 454.363281 C 465.816406 453.78125 462.777344 455.199219 461.953125 458.210938 C 461.203125 460.925781 462.867188 464.402344 465.800781 464.992188 C 485.640625 468.96875 505.433594 473.175781 525.148438 477.722656 C 528.902344 494.417969 537.566406 510.011719 549.691406 522.152344 C 558.4375 530.902344 568.902344 538.058594 580.207031 543.070312 C 586.15625 545.703125 592.4375 548.21875 598.875 549.335938 C 603.574219 550.144531 608.058594 550.035156 612.242188 548.695312 C 613 548.8125 613.792969 548.8125 614.589844 548.6875 C 623.988281 547.214844 632.527344 542.4375 639.988281 536.71875 C 646.769531 531.519531 652.96875 525.691406 658.523438 519.230469 C 669.363281 524.414062 680.5 530.527344 688.25 539.726562 C 688.355469 539.851562 688.707031 540.304688 688.824219 540.453125 C 689.121094 540.855469 689.40625 541.273438 689.683594 541.691406 C 690.234375 542.53125 690.746094 543.398438 691.199219 544.292969 C 691.351562 544.601562 691.496094 544.917969 691.640625 545.230469 C 691.691406 545.367188 691.757812 545.550781 691.804688 545.722656 C 692.058594 546.546875 692.257812 547.375 692.488281 548.207031 C 692.503906 548.285156 692.523438 548.347656 692.539062 548.410156 C 692.539062 548.417969 692.539062 548.421875 692.539062 548.425781 C 692.570312 548.796875 692.605469 549.164062 692.621094 549.539062 C 692.640625 550.191406 692.589844 550.832031 692.578125 551.484375 C 692.578125 551.578125 692.578125 551.65625 692.578125 551.71875 C 692.558594 551.773438 692.546875 551.839844 692.527344 551.917969 C 692.375 552.550781 692.257812 553.1875 692.078125 553.820312 C 691.917969 554.371094 691.691406 554.902344 691.53125 555.449219 C 691.527344 555.460938 691.519531 555.46875 691.519531 555.476562 C 691.414062 555.710938 691.308594 555.945312 691.195312 556.175781 C 690.597656 557.40625 689.894531 558.585938 689.132812 559.71875 C 688.820312 560.179688 688.496094 560.628906 688.164062 561.074219 C 688.625 560.441406 687.480469 561.910156 687.160156 562.28125 C 686.09375 563.515625 684.960938 564.683594 683.789062 565.808594 C 682.558594 566.980469 681.28125 568.101562 679.964844 569.179688 C 679.574219 569.496094 679.1875 569.808594 678.796875 570.121094 C 678.726562 570.175781 678.769531 570.148438 678.820312 570.109375 C 678.757812 570.152344 678.664062 570.222656 678.523438 570.328125 C 677.734375 570.914062 676.949219 571.496094 676.152344 572.0625 C 672.71875 574.488281 669.140625 576.699219 665.480469 578.761719 C 646.230469 589.613281 625.398438 596.632812 603.914062 602.597656 C 576.078125 610.328125 547.53125 615.613281 518.863281 619.074219 C 485.636719 623.082031 452.101562 624.738281 418.640625 624.023438 C 384.320312 623.285156 350.039062 620.042969 316.300781 613.636719 C 286.84375 608.042969 257.707031 600.445312 229.28125 590.910156 C 203.582031 582.289062 177.871094 572.191406 154.753906 557.859375 C 146.027344 552.453125 138.421875 547.058594 131.492188 539.433594 C 130.8125 538.683594 130.152344 537.921875 129.511719 537.148438 C 129.417969 537.027344 129.019531 536.53125 128.867188 536.34375 C 128.707031 536.117188 128.195312 535.425781 128.035156 535.199219 C 128.015625 535.171875 128 535.144531 127.980469 535.117188 C 127.710938 534.519531 127.367188 534.015625 126.960938 533.597656 C 126.292969 532.558594 125.660156 531.488281 125.09375 530.386719 C 124.90625 530.027344 124.230469 528.5 124.269531 528.644531 C 123.964844 527.871094 123.683594 527.089844 123.449219 526.289062 C 123.222656 525.523438 123.03125 524.746094 122.878906 523.960938 C 122.828125 523.707031 122.789062 523.453125 122.746094 523.199219 C 122.726562 523.027344 122.695312 522.753906 122.683594 522.515625 C 122.445312 518.046875 123.339844 514.707031 125.589844 510.878906 C 128.5 505.917969 132.917969 501.714844 137.59375 498.105469 C 149.574219 488.855469 163.890625 482.414062 177.886719 476.890625 C 185.746094 473.792969 193.71875 470.996094 201.746094 468.367188 C 208.460938 466.167969 205.585938 455.523438 198.816406 457.734375 C 182.078125 463.214844 165.398438 469.398438 149.769531 477.574219 C 137.328125 484.085938 124.183594 492.332031 116.566406 504.5 C 111.328125 512.867188 110.148438 522.945312 113.855469 532.121094 C 114.964844 534.875 116.359375 537.46875 117.972656 539.929688 C 130.59375 582.796875 150.089844 623.84375 177.082031 659.554688 C 206.929688 699.046875 244.945312 733.941406 291.503906 752.207031 C 316.234375 761.910156 342.507812 766.113281 368.949219 767.347656 C 381.242188 767.921875 393.554688 767.929688 405.859375 767.945312 C 418.203125 767.964844 430.558594 767.96875 442.886719 767.386719 C 469.324219 766.140625 495.621094 761.941406 520.394531 752.382812 C 544.527344 743.066406 566.136719 729.582031 585.777344 712.824219 C 622.515625 681.484375 655.570312 645.988281 683.203125 606.351562 C 687.351562 600.40625 691.371094 594.367188 695.277344 588.265625 C 699.113281 582.269531 689.578125 576.734375 685.761719 582.699219 C 671.519531 604.941406 655.707031 626.140625 638.273438 645.984375 C 623.984375 662.25 608.554688 677.320312 592.632812 691.96875 C 575.066406 708.136719 556.753906 722.988281 535.335938 733.785156 C 511.816406 745.644531 486.1875 752.550781 460.019531 755.136719 C 435.945312 757.523438 411.566406 757.128906 387.40625 756.832031 C 362.644531 756.523438 337.933594 754.8125 313.980469 748.128906 C 288.78125 741.097656 265.007812 729 244.308594 713.015625 C 227.136719 699.761719 211.414062 683.925781 197.390625 667.417969 C 170.03125 635.214844 149.402344 597.574219 135.320312 557.785156 C 154.3125 572.75 177.167969 582.910156 199.449219 591.734375 C 228.617188 603.292969 258.867188 612.226562 289.429688 619.242188 C 323.023438 626.945312 357.203125 631.820312 391.597656 633.929688 C 426.945312 636.097656 462.46875 635.496094 497.734375 632.320312 C 529.308594 629.476562 560.796875 624.679688 591.609375 617.183594 C 615.691406 611.332031 639.695312 603.921875 662.007812 593.011719 C 670.261719 588.980469 678.246094 584.378906 685.519531 578.746094 C 691.089844 574.433594 696.40625 569.421875 699.921875 563.238281 C 703.253906 557.363281 704.625 550.546875 702.796875 543.945312 C 699.875 533.398438 690.59375 525.699219 681.910156 519.824219 " fill-opacity="1" fill-rule="nonzero"/><path fill="#000000" d="M 511.402344 331.917969 C 511.261719 332.050781 511.207031 332.109375 511.191406 332.125 C 510.96875 332.292969 510.734375 332.449219 510.503906 332.601562 C 509.691406 333.152344 508.847656 333.644531 507.972656 334.097656 C 501.613281 337.371094 493.882812 337.347656 486.875 337.421875 C 486.746094 336.382812 486.527344 335.34375 486.195312 334.3125 C 485.628906 332.542969 484.824219 330.863281 483.820312 329.320312 C 483.914062 329.117188 483.996094 328.90625 484.0625 328.683594 C 484.269531 328.050781 484.464844 327.414062 484.652344 326.773438 C 485.261719 325.207031 486.132812 323.96875 487.445312 322.671875 C 489.203125 320.9375 491.425781 319.5625 493.964844 318.34375 C 498.355469 316.242188 505.433594 314.125 510.445312 315.175781 C 511.707031 315.4375 512.734375 315.8125 513.773438 316.570312 C 513.617188 316.480469 514.351562 317.144531 514.476562 317.273438 C 514.539062 317.34375 514.589844 317.398438 514.636719 317.441406 C 514.835938 317.722656 515 318.023438 515.175781 318.316406 C 515.21875 318.398438 515.382812 318.730469 515.421875 318.792969 C 515.46875 318.925781 515.507812 319.0625 515.546875 319.195312 C 515.6875 319.707031 515.832031 320.210938 515.925781 320.730469 C 515.894531 320.671875 515.96875 321.527344 515.96875 321.742188 C 515.972656 322.011719 515.882812 323.699219 515.957031 323.207031 C 515.601562 326.011719 514.898438 327.519531 513.378906 329.773438 C 513.046875 330.261719 512.308594 331.078125 511.402344 331.917969 Z M 511.597656 364.308594 C 512.839844 366.675781 512.960938 369.128906 511.894531 370.433594 C 510.402344 372.261719 507.890625 372.996094 505.640625 372.96875 C 502.21875 372.921875 498.996094 371.265625 496.109375 369.558594 C 489.492188 365.636719 483.441406 360.769531 477.875 355.46875 C 478.226562 355.25 478.578125 355.019531 478.921875 354.773438 C 481.335938 353.015625 483.320312 350.761719 484.71875 348.222656 C 484.761719 348.234375 484.808594 348.246094 484.855469 348.257812 C 492 349.414062 498.796875 352.109375 504.542969 356.574219 C 507.273438 358.695312 509.980469 361.210938 511.597656 364.308594 Z M 469.390625 362.695312 C 469.414062 362.730469 469.441406 362.773438 469.480469 362.832031 C 469.828125 363.351562 470.140625 363.890625 470.433594 364.445312 C 470.488281 364.550781 470.535156 364.632812 470.570312 364.703125 C 470.6875 364.996094 470.789062 365.304688 470.878906 365.601562 C 471.066406 366.199219 471.207031 366.804688 471.328125 367.417969 C 471.285156 367.285156 471.441406 368.390625 471.449219 368.632812 C 471.476562 369.269531 471.472656 369.902344 471.433594 370.535156 C 471.421875 370.808594 471.398438 371.085938 471.371094 371.359375 C 471.367188 371.398438 471.359375 371.449219 471.34375 371.507812 C 471.207031 372.222656 471.046875 372.9375 470.835938 373.640625 C 470.226562 375.71875 469.097656 377.707031 467.683594 379.160156 C 466.03125 380.84375 464.71875 381.582031 462.183594 382.152344 C 460.078125 382.628906 457.914062 382.4375 455.398438 381.65625 C 453.175781 380.96875 451 379.6875 449.300781 378.066406 C 447.507812 376.355469 446.289062 374.539062 445.644531 372.421875 C 444.90625 369.976562 444.882812 367.410156 445.457031 365.046875 C 446.800781 359.496094 450.875 354.648438 456.050781 352.734375 C 456.484375 353.171875 456.949219 353.589844 457.453125 353.984375 C 460.339844 356.277344 463.773438 357.628906 467.273438 357.945312 C 467.171875 359.304688 467.605469 360.746094 468.804688 362.042969 C 469 362.257812 469.203125 362.472656 469.390625 362.695312 Z M 470.667969 364.886719 C 470.738281 365.019531 470.714844 364.980469 470.667969 364.886719 Z M 421.433594 333.871094 C 420.054688 331.839844 420.253906 330.339844 421.414062 328.414062 C 422.761719 326.160156 425.152344 324.425781 427.636719 323.238281 C 432.023438 321.152344 437.996094 320.671875 442.640625 321.5625 C 447.214844 322.441406 451.171875 324.167969 454.609375 326.878906 C 453.722656 328.277344 453.019531 329.8125 452.476562 331.378906 C 451.226562 334.980469 450.738281 338.894531 451.226562 342.601562 C 446.230469 343.847656 441.15625 343.886719 436.125 342.617188 C 430.898438 341.296875 424.589844 338.507812 421.433594 333.871094 Z M 456.535156 294.945312 C 456.550781 293.484375 456.597656 292.8125 456.796875 291.953125 C 457.144531 290.5 457.328125 289.792969 457.777344 289 C 457.882812 288.808594 458.484375 287.890625 458.425781 287.914062 C 458.714844 287.5625 459.039062 287.238281 459.378906 286.933594 C 459.292969 287.039062 460.28125 286.3125 460.503906 286.199219 C 460.796875 286.046875 461.222656 285.878906 461.875 285.71875 C 462.433594 285.574219 463.855469 285.527344 464.359375 285.601562 C 465.933594 285.835938 467.070312 286.285156 468.265625 286.980469 C 473.101562 289.78125 475.167969 296.160156 475.898438 301.671875 C 476.777344 308.289062 476.25 315.050781 474.640625 321.539062 C 472.335938 320.566406 469.828125 320.042969 467.226562 320.09375 C 467.039062 320.097656 466.855469 320.113281 466.683594 320.128906 C 462.714844 314.746094 459.40625 308.738281 457.585938 302.285156 C 456.78125 299.445312 456.507812 297.878906 456.535156 294.945312 Z M 463.914062 332.6875 C 464.25 332.207031 464.417969 332.007812 464.871094 331.609375 C 464.429688 331.992188 465.726562 331.230469 465.15625 331.449219 C 466.070312 331.097656 465.988281 331.082031 466.785156 331.636719 C 468.085938 332.542969 469.730469 332.609375 471.207031 332.113281 C 473.394531 333.300781 475.113281 335.472656 475.820312 338.128906 C 476.253906 339.75 475.910156 341.734375 474.8125 343.488281 C 473.78125 345.132812 472.027344 346.429688 470.140625 346.910156 C 466.714844 347.785156 462.289062 345.296875 462.039062 340.828125 C 461.898438 338.234375 462.390625 334.863281 463.914062 332.6875 Z M 514.65625 317.460938 C 515.089844 317.925781 514.808594 317.652344 514.65625 317.460938 Z M 526.601562 326.003906 C 527.886719 318.152344 525.191406 309.800781 517.664062 306.09375 C 509.894531 302.269531 500.1875 304.074219 492.429688 307.101562 C 490.683594 307.78125 488.949219 308.570312 487.285156 309.464844 C 487.328125 306.613281 487.179688 303.757812 486.824219 300.933594 C 485.722656 292.164062 482.539062 283.339844 474.949219 278.171875 C 467.847656 273.339844 457.894531 273.1875 451.472656 279.242188 C 445.886719 284.507812 444.917969 292.753906 445.90625 299.980469 C 446.460938 304.039062 447.640625 308.039062 449.25 311.890625 C 440.597656 309.269531 431.011719 309.671875 422.675781 313.445312 C 414.789062 317.011719 408.066406 325.167969 409.796875 334.230469 C 411.480469 343.089844 421.089844 348.847656 428.820312 351.851562 C 431.847656 353.027344 435.039062 353.8125 438.285156 354.230469 C 432.800781 363.304688 432.382812 375.164062 439.910156 384.152344 C 444.976562 390.214844 453.460938 393.964844 461.371094 393.328125 C 470.269531 392.617188 477.289062 387.0625 480.632812 378.890625 C 481.355469 377.117188 481.863281 375.273438 482.160156 373.414062 C 484.03125 374.796875 485.9375 376.128906 487.878906 377.40625 C 494.59375 381.796875 502.402344 385.289062 510.5625 383.421875 C 517.949219 381.730469 524.15625 375.21875 523.671875 367.335938 C 523.152344 358.859375 517.0625 352.347656 510.636719 347.460938 C 509.871094 346.871094 509.078125 346.3125 508.28125 345.769531 C 509.839844 345.265625 511.375 344.660156 512.882812 343.9375 C 519.996094 340.519531 525.320312 333.859375 526.601562 326.003906 " fill-opacity="1" fill-rule="nonzero"/><path fill="#000000" d="M 453.40625 428.210938 C 453.394531 428.253906 453.128906 429.230469 453.046875 429.65625 C 453.042969 429.679688 453.039062 429.695312 453.03125 429.71875 C 452.972656 429.816406 452.90625 429.9375 452.851562 430.035156 C 452.890625 430.007812 452.941406 429.980469 452.988281 429.949219 C 452.988281 429.957031 452.984375 429.960938 452.984375 429.972656 C 452.90625 430.054688 452.84375 430.160156 452.765625 430.246094 C 452.746094 430.464844 452.414062 430.589844 452.367188 430.507812 C 452.125 430.671875 451.902344 430.867188 452.097656 430.789062 C 450.679688 431.359375 449.945312 431.539062 448.285156 431.3125 C 448.667969 431.34375 447.710938 431.082031 447.421875 431.039062 C 447.234375 430.9375 446.945312 430.796875 446.875 430.761719 C 446.863281 430.746094 446.851562 430.734375 446.832031 430.722656 C 446.769531 430.65625 446.710938 430.589844 446.648438 430.519531 C 446.644531 430.507812 446.644531 430.507812 446.640625 430.496094 C 446.601562 430.398438 446.402344 430 446.273438 429.769531 C 446.183594 429.507812 446.0625 429.179688 446.027344 429.082031 C 445.878906 428.539062 445.777344 427.988281 445.671875 427.4375 C 445.652344 427.152344 445.621094 426.863281 445.601562 426.574219 C 445.570312 426.039062 445.558594 425.507812 445.558594 424.972656 C 445.5625 423.625 445.660156 422.285156 445.8125 420.949219 C 445.816406 420.921875 445.824219 420.890625 445.828125 420.863281 C 445.875 420.613281 445.910156 420.363281 445.953125 420.117188 C 446.066406 419.453125 446.195312 418.792969 446.339844 418.136719 C 446.625 416.835938 446.964844 415.546875 447.363281 414.277344 C 447.578125 413.582031 447.808594 412.890625 448.058594 412.210938 C 448.15625 411.945312 448.765625 410.5 448.582031 410.867188 C 448.992188 409.988281 449.417969 409.121094 449.902344 408.28125 C 450.089844 408.644531 450.265625 409.011719 450.429688 409.382812 C 450.425781 409.421875 450.867188 410.554688 450.921875 410.726562 C 451.203125 411.527344 451.457031 412.339844 451.691406 413.15625 C 452.1875 414.890625 452.585938 416.648438 452.910156 418.421875 C 453.417969 421.28125 453.832031 425.355469 453.40625 428.210938 Z M 452.988281 429.96875 C 452.992188 429.957031 452.992188 429.953125 452.996094 429.945312 C 453.015625 429.933594 453.027344 429.921875 453.050781 429.910156 C 453.027344 429.925781 453.007812 429.945312 452.988281 429.96875 Z M 451.6875 395.761719 C 451.152344 395.582031 450.582031 395.5 449.988281 395.546875 C 448.917969 395.515625 448.007812 395.746094 447.265625 396.152344 C 442.101562 398.089844 439.347656 404.101562 437.511719 409.058594 C 435.035156 415.734375 433.773438 423.355469 435.042969 430.417969 C 435.609375 433.554688 437.027344 436.683594 439.40625 438.851562 C 443.222656 442.316406 449 443.070312 453.867188 441.789062 C 464.335938 439.042969 465.277344 428.429688 464.105469 419.320312 C 463.402344 413.839844 462.140625 408.496094 459.789062 403.472656 C 458.148438 399.964844 455.503906 396.625 451.6875 395.761719 " fill-opacity="1" fill-rule="nonzero"/><path fill="#000000" d="M 452.367188 430.507812 C 452.46875 430.441406 452.566406 430.378906 452.648438 430.34375 C 452.695312 430.320312 452.730469 430.289062 452.765625 430.246094 C 452.765625 430.238281 452.769531 430.234375 452.769531 430.222656 C 452.769531 430.199219 452.804688 430.125 452.851562 430.035156 C 452.441406 430.308594 452.339844 430.453125 452.367188 430.507812 " fill-opacity="1" fill-rule="nonzero"/><path fill="#000000" d="M 491.871094 413.023438 C 491.871094 413.023438 491.867188 413.03125 491.855469 413.03125 C 491.855469 413.035156 491.84375 413.039062 491.839844 413.042969 C 491.953125 412.902344 492.03125 412.886719 492.09375 412.90625 C 492.007812 412.953125 491.9375 412.988281 491.871094 413.023438 Z M 491.828125 413.0625 C 491.832031 413.058594 491.835938 413.046875 491.835938 413.042969 C 491.835938 413.046875 491.835938 413.046875 491.835938 413.054688 C 491.835938 413.058594 491.832031 413.058594 491.828125 413.0625 Z M 490.960938 413.34375 C 490.691406 413.355469 490.417969 413.351562 490.144531 413.335938 C 490.132812 413.328125 490.035156 413.300781 489.855469 413.261719 C 489.761719 413.035156 489.5625 412.613281 489.492188 412.378906 C 489.453125 412.226562 489.417969 412.078125 489.402344 411.960938 C 489.359375 411.433594 489.324219 410.902344 489.324219 410.371094 C 489.320312 409.898438 489.332031 409.421875 489.359375 408.949219 C 489.371094 408.765625 489.519531 407.410156 489.484375 407.5625 C 489.644531 406.535156 489.859375 405.515625 490.117188 404.515625 C 490.320312 403.738281 490.558594 402.972656 490.8125 402.210938 C 491.507812 404.59375 491.894531 406.789062 492.007812 409.1875 C 492.058594 410.132812 492.058594 411.078125 492.003906 412.023438 C 491.941406 413.074219 491.871094 412.039062 491.839844 412.949219 C 491.839844 412.984375 491.839844 413.011719 491.835938 413.042969 C 491.722656 413.109375 491.648438 413.148438 491.609375 413.179688 C 491.414062 413.238281 491.207031 413.292969 491 413.332031 C 490.984375 413.335938 490.976562 413.335938 490.960938 413.34375 Z M 489.777344 413.242188 C 489.707031 413.117188 489.632812 413 489.566406 412.878906 C 489.667969 413.042969 489.742188 413.15625 489.789062 413.246094 C 489.785156 413.246094 489.78125 413.242188 489.777344 413.242188 Z M 489.390625 411.910156 C 489.351562 411.652344 489.355469 411.5625 489.390625 411.910156 Z M 493.171875 387.808594 C 492.5 387.503906 491.769531 387.355469 491.007812 387.429688 C 490.125 387.386719 489.28125 387.605469 488.53125 388.003906 C 484.320312 389.613281 482.082031 394.09375 480.515625 398.3125 C 478.578125 403.523438 477.613281 409.617188 478.824219 415.105469 C 480.394531 422.25 487.609375 425.816406 494.503906 423.8125 C 502.523438 421.480469 503.671875 413.453125 502.753906 406.238281 C 501.980469 400.074219 500.03125 389.902344 493.171875 387.808594 " fill-opacity="1" fill-rule="nonzero"/><path fill="#000000" d="M 484.441406 644.074219 C 443.1875 650.167969 401.179688 651.308594 359.632812 647.84375 C 318.332031 644.402344 277.441406 636.214844 237.960938 623.621094 C 215.691406 616.519531 193.898438 607.992188 172.746094 598.042969 C 170.054688 596.78125 166.804688 597.292969 165.207031 600.027344 C 163.808594 602.417969 164.480469 606.292969 167.183594 607.566406 C 205.824219 625.730469 246.488281 639.476562 288.253906 648.363281 C 330.007812 657.246094 372.808594 661.453125 415.488281 660.703125 C 439.558594 660.28125 463.558594 658.21875 487.371094 654.703125 C 490.320312 654.265625 491.941406 650.539062 491.21875 647.921875 C 490.351562 644.761719 487.398438 643.636719 484.441406 644.074219 " fill-opacity="1" fill-rule="nonzero"/><path fill="#000000" d="M 534.003906 637.375 C 524.910156 639.558594 515.707031 641.050781 506.382812 641.773438 C 503.410156 642.007812 500.875 644.140625 500.875 647.285156 C 500.875 650.089844 503.398438 653.03125 506.382812 652.792969 C 516.671875 651.996094 526.894531 650.414062 536.933594 648 C 543.824219 646.339844 540.90625 635.710938 534.003906 637.375 " fill-opacity="1" fill-rule="nonzero"/><path fill="#000000" d="M 195.226562 523.726562 C 194.328125 525.917969 192.589844 527.453125 190.582031 527.808594 C 191.054688 527.695312 189.648438 527.613281 190.320312 527.808594 C 189.652344 527.613281 189.59375 527.75 188.792969 527.152344 C 189.164062 527.433594 188.253906 526.554688 188.097656 526.398438 C 188.128906 526.398438 187.496094 525.378906 187.378906 525.132812 C 187.089844 524.527344 186.804688 523.371094 186.753906 522.703125 C 186.609375 520.976562 186.894531 519.3125 187.320312 517.644531 C 188.316406 513.75 189.914062 509.984375 191.316406 506.21875 C 191.359375 506.105469 191.398438 505.996094 191.441406 505.878906 C 192.773438 509.058594 194.175781 512.21875 195.046875 515.5625 C 195.714844 518.136719 196.089844 521.605469 195.226562 523.726562 Z M 193.285156 487.3125 C 192.832031 487.3125 192.371094 487.386719 191.917969 487.515625 C 191.910156 487.515625 191.90625 487.507812 191.898438 487.507812 C 188.816406 486.664062 186.160156 488.554688 185.121094 491.359375 C 182.394531 498.691406 179.234375 506.007812 177.027344 513.519531 C 174.941406 520.605469 175.175781 528.40625 180.28125 534.171875 C 185.027344 539.535156 193.199219 540.15625 198.921875 535.992188 C 205.476562 531.222656 207.519531 523.695312 206.335938 515.902344 C 205.109375 507.824219 199.753906 500.902344 198.796875 492.824219 C 198.445312 489.867188 196.511719 487.3125 193.285156 487.3125 " fill-opacity="1" fill-rule="nonzero"/><path fill="#000000" d="M 349.992188 591.238281 C 349.09375 593.429688 347.355469 594.964844 345.347656 595.320312 C 345.820312 595.207031 344.414062 595.125 345.085938 595.320312 C 344.417969 595.125 344.359375 595.261719 343.558594 594.664062 C 343.933594 594.945312 343.023438 594.066406 342.863281 593.910156 C 342.898438 593.910156 342.261719 592.890625 342.144531 592.644531 C 341.859375 592.039062 341.574219 590.886719 341.519531 590.214844 C 341.378906 588.488281 341.660156 586.824219 342.085938 585.160156 C 343.082031 581.261719 344.683594 577.5 346.082031 573.734375 C 346.125 573.617188 346.164062 573.507812 346.207031 573.390625 C 347.539062 576.570312 348.9375 579.730469 349.8125 583.074219 C 350.480469 585.648438 350.859375 589.117188 349.992188 591.238281 Z M 348.050781 554.824219 C 347.601562 554.824219 347.140625 554.898438 346.683594 555.027344 C 346.679688 555.027344 346.671875 555.019531 346.667969 555.019531 C 343.582031 554.175781 340.925781 556.070312 339.886719 558.871094 C 337.160156 566.203125 334 573.519531 331.792969 581.03125 C 329.710938 588.117188 329.941406 595.917969 335.046875 601.683594 C 339.792969 607.046875 347.96875 607.667969 353.6875 603.507812 C 360.246094 598.734375 362.289062 591.207031 361.105469 583.414062 C 359.878906 575.335938 354.523438 568.414062 353.558594 560.335938 C 353.210938 557.378906 351.28125 554.824219 348.050781 554.824219 " fill-opacity="1" fill-rule="nonzero"/></svg>