<svg xmlns="http://www.w3.org/2000/svg" xmlns:xlink="http://www.w3.org/1999/xlink" width="1024" zoomAndPan="magnify" viewBox="0 0 768 767.999994" height="1024" preserveAspectRatio="xMidYMid meet" version="1.0"><defs><clipPath id="94ea828ed4"><path d="M 696 296 L 761.585938 296 L 761.585938 362 L 696 362 Z M 696 296 " clip-rule="nonzero"/></clipPath><clipPath id="5648671e77"><path d="M 293 36 L 386 36 L 386 128 L 293 128 Z M 293 36 " clip-rule="nonzero"/></clipPath><clipPath id="3ef89f4751"><path d="M 53 546 L 590 546 L 590 731.867188 L 53 731.867188 Z M 53 546 " clip-rule="nonzero"/></clipPath></defs><g clip-path="url(#94ea828ed4)"><path fill="#000000" d="M 754.597656 322.128906 L 736.269531 322.128906 L 736.269531 303.800781 C 736.269531 299.894531 733.078125 296.757812 729.226562 296.757812 C 725.320312 296.757812 722.183594 299.894531 722.183594 303.800781 L 722.183594 322.128906 L 703.800781 322.128906 C 699.890625 322.128906 696.753906 325.265625 696.753906 329.171875 C 696.753906 333.082031 699.890625 336.21875 703.800781 336.21875 L 722.183594 336.21875 L 722.183594 354.601562 C 722.183594 358.453125 725.320312 361.644531 729.226562 361.644531 C 733.078125 361.644531 736.269531 358.453125 736.269531 354.601562 L 736.269531 336.21875 L 754.597656 336.21875 C 758.503906 336.21875 761.640625 333.082031 761.640625 329.171875 C 761.640625 325.265625 758.503906 322.128906 754.597656 322.128906 " fill-opacity="1" fill-rule="nonzero"/></g><path fill="#000000" d="M 75.460938 171.496094 L 93.789062 171.496094 L 93.789062 189.824219 C 93.789062 193.730469 96.925781 196.867188 100.832031 196.867188 C 104.738281 196.867188 107.875 193.730469 107.875 189.824219 L 107.875 171.496094 L 126.257812 171.496094 C 130.109375 171.496094 133.300781 168.304688 133.300781 164.453125 C 133.300781 160.546875 130.109375 157.40625 126.257812 157.40625 L 107.875 157.40625 L 107.875 139.027344 C 107.875 135.117188 104.738281 131.980469 100.832031 131.980469 C 96.925781 131.980469 93.789062 135.117188 93.789062 139.027344 L 93.789062 157.40625 L 75.460938 157.40625 C 71.554688 157.40625 68.414062 160.546875 68.414062 164.453125 C 68.414062 168.304688 71.554688 171.496094 75.460938 171.496094 " fill-opacity="1" fill-rule="nonzero"/><g clip-path="url(#5648671e77)"><path fill="#000000" d="M 300.71875 88.667969 L 332.3125 88.667969 L 332.3125 120.257812 C 332.3125 124.167969 335.503906 127.304688 339.355469 127.304688 C 343.261719 127.304688 346.398438 124.167969 346.398438 120.257812 L 346.398438 88.667969 L 377.988281 88.667969 C 381.898438 88.667969 385.035156 85.53125 385.035156 81.625 C 385.035156 77.71875 381.898438 74.578125 377.988281 74.578125 L 346.398438 74.578125 L 346.398438 42.988281 C 346.398438 39.082031 343.261719 35.945312 339.355469 35.945312 C 335.503906 35.945312 332.3125 39.082031 332.3125 42.988281 L 332.3125 74.578125 L 300.71875 74.578125 C 296.867188 74.578125 293.675781 77.71875 293.675781 81.625 C 293.675781 85.53125 296.867188 88.667969 300.71875 88.667969 " fill-opacity="1" fill-rule="nonzero"/></g><g clip-path="url(#3ef89f4751)"><path fill="#000000" d="M 53.554688 606.496094 C 54.050781 609.964844 57.078125 612.496094 60.492188 612.496094 C 60.875 612.496094 61.207031 612.441406 61.589844 612.386719 C 98.90625 606.71875 131.488281 576.558594 137.761719 570.449219 C 152.566406 577.769531 167.589844 583.988281 182.78125 589.324219 C 176.339844 603.582031 154.929688 639.078125 94.558594 664.78125 C 90.925781 666.265625 89.273438 670.394531 90.816406 673.96875 C 91.914062 676.667969 94.558594 678.261719 97.308594 678.261719 C 98.191406 678.261719 99.125 678.097656 100.0625 677.714844 C 166.597656 649.425781 189.4375 609.910156 196.261719 593.839844 C 215.691406 599.894531 235.449219 604.460938 255.480469 607.488281 C 243.980469 635.996094 216.570312 694.71875 194.390625 706.167969 C 190.925781 707.925781 189.550781 712.21875 191.363281 715.632812 C 192.574219 718.054688 195.050781 719.484375 197.640625 719.484375 C 198.683594 719.484375 199.785156 719.210938 200.832031 718.660156 C 231.539062 702.863281 262.691406 627.796875 269.902344 609.46875 C 283.714844 611.066406 297.695312 611.945312 311.835938 612.109375 L 311.835938 724.824219 C 311.835938 728.675781 314.972656 731.867188 318.882812 731.867188 C 322.734375 731.867188 325.925781 728.675781 325.925781 724.824219 L 325.925781 612 C 341.226562 611.671875 356.691406 610.515625 372.320312 608.535156 C 378.707031 624.933594 410.40625 702.589844 441.722656 718.660156 C 442.765625 719.210938 443.867188 719.484375 444.96875 719.484375 C 447.5 719.484375 449.976562 718.054688 451.242188 715.632812 C 453.003906 712.21875 451.628906 707.925781 448.160156 706.167969 C 425.761719 694.609375 398.023438 634.730469 386.6875 606.550781 C 406.222656 603.46875 426.035156 598.957031 446.015625 593.289062 C 452.617188 609.027344 475.238281 649.09375 542.546875 677.714844 C 543.425781 678.097656 544.363281 678.261719 545.296875 678.261719 C 547.996094 678.261719 550.636719 676.667969 551.738281 673.96875 C 553.277344 670.394531 551.625 666.265625 548.050781 664.78125 C 487.566406 639.078125 466.210938 603.46875 459.773438 589.269531 C 475.347656 584.429688 491.03125 578.757812 506.882812 572.375 C 516.570312 581.402344 546.785156 607.210938 580.960938 612.386719 C 581.347656 612.441406 581.675781 612.496094 582.0625 612.496094 C 585.472656 612.496094 588.5 609.964844 588.996094 606.496094 C 589.601562 602.644531 586.960938 599.066406 583.105469 598.460938 C 557.460938 594.554688 533.410156 576.613281 521.46875 566.429688 C 525.429688 564.726562 529.390625 562.964844 534.125 560.761719 C 537.648438 559.167969 539.242188 554.984375 537.59375 551.460938 C 535.996094 547.882812 531.871094 546.34375 528.292969 547.996094 C 519.871094 551.847656 514.203125 554.214844 505.890625 557.679688 C 505.835938 557.679688 505.835938 557.679688 505.835938 557.679688 C 395.050781 603.25 290.925781 610.183594 195.21875 578.703125 C 194.777344 578.484375 194.390625 578.152344 193.898438 578.042969 C 193.566406 577.933594 193.292969 578.042969 192.960938 577.988281 C 169.1875 570.007812 145.90625 559.71875 123.175781 547.003906 C 119.765625 545.078125 115.472656 546.289062 113.601562 549.699219 C 111.671875 553.058594 112.882812 557.351562 116.296875 559.277344 C 118.992188 560.761719 121.746094 562.082031 124.441406 563.570312 C 114.316406 572.652344 87.898438 594.167969 59.445312 598.460938 C 55.59375 599.066406 52.949219 602.644531 53.554688 606.496094 " fill-opacity="1" fill-rule="nonzero"/></g><path fill="#000000" d="M 446.785156 214.976562 C 445.792969 214.203125 444.636719 213.710938 443.371094 213.542969 L 343.703125 200.335938 C 341.171875 200.003906 338.75 201.050781 337.207031 202.976562 C 335.722656 204.957031 335.28125 207.601562 336.21875 209.910156 L 358.507812 266.542969 L 72.101562 392.246094 C 62.691406 396.371094 52.070312 395.988281 42.988281 391.144531 C 33.742188 386.246094 27.359375 377.441406 25.433594 367.039062 C 20.699219 340.785156 20.699219 317.285156 25.542969 297.199219 C 32.644531 267.863281 201.214844 215.910156 445.023438 167.863281 C 453.445312 166.214844 462.085938 167.148438 470.667969 170.78125 L 650.582031 228.570312 L 477.824219 219.984375 C 471 219.875 464.175781 221.25 457.738281 223.503906 Z M 383.660156 291.914062 L 372.15625 262.691406 L 403.636719 222.460938 L 434.730469 226.585938 Z M 353.71875 215.855469 L 387.402344 220.3125 L 366.15625 247.5 Z M 471.9375 234.566406 C 473.75 234.402344 475.566406 234.074219 477.328125 234.074219 L 703.46875 245.300781 C 707.046875 245.464844 710.128906 242.988281 710.734375 239.519531 C 711.394531 236.054688 709.304688 232.640625 705.945312 231.539062 L 475.621094 157.628906 C 465.054688 153.058594 453.554688 151.847656 442.273438 154.050781 C 317.066406 178.707031 24.441406 241.722656 11.894531 293.894531 C 6.554688 315.910156 6.445312 341.390625 11.621094 369.570312 C 14.261719 384.265625 23.285156 396.648438 36.386719 403.582031 C 43.375 407.324219 50.96875 409.195312 58.621094 409.195312 C 65.113281 409.195312 71.664062 407.820312 77.828125 405.121094 L 363.679688 279.640625 L 373.09375 303.472656 C 373.53125 304.628906 374.304688 305.671875 375.292969 306.445312 L 379.035156 309.359375 L 659.277344 528.402344 C 660.597656 529.449219 662.136719 529.941406 663.625 529.941406 C 665.769531 529.941406 667.808594 529.007812 669.183594 527.191406 C 671.605469 524.164062 671.054688 519.707031 667.972656 517.339844 L 393.234375 302.589844 L 447.390625 233.300781 L 722.125 448.050781 C 725.207031 450.417969 729.613281 449.921875 732.03125 446.839844 C 734.453125 443.757812 733.902344 439.355469 730.820312 436.933594 L 471.9375 234.566406 " fill-opacity="1" fill-rule="nonzero"/></svg>