<svg xmlns="http://www.w3.org/2000/svg" xmlns:xlink="http://www.w3.org/1999/xlink" width="1024" zoomAndPan="magnify" viewBox="0 0 768 767.999994" height="1024" preserveAspectRatio="xMidYMid meet" version="1.0"><defs><clipPath id="5406b3b2c6"><path d="M 595 318 L 705.898438 318 L 705.898438 429 L 595 429 Z M 595 318 " clip-rule="nonzero"/></clipPath></defs><path fill="#000000" d="M 191.113281 731.335938 C 182.960938 739.152344 175.203125 749.25 169.273438 759.773438 C 167.777344 762.425781 168.71875 765.792969 171.375 767.289062 C 172.234375 767.773438 173.164062 768 174.082031 768 C 176.011719 768 177.882812 766.988281 178.898438 765.1875 C 184.308594 755.585938 191.363281 746.394531 198.761719 739.304688 C 200.960938 737.195312 201.035156 733.703125 198.921875 731.5 C 196.8125 729.300781 193.316406 729.230469 191.113281 731.335938 Z M 191.113281 731.335938 " fill-opacity="1" fill-rule="nonzero"/><path fill="#000000" d="M 538.386719 706.421875 L 516.136719 697.640625 C 477.789062 682.503906 450.933594 646.175781 447.722656 605.089844 L 445.5 576.660156 C 455.84375 568.472656 465.523438 558.550781 474.265625 547.042969 C 536.226562 499.734375 574.695312 408.242188 574.695312 308.003906 C 574.695312 277.660156 566.691406 252.128906 550.226562 229.957031 C 537.796875 213.210938 520.691406 198.519531 496.691406 184.007812 C 507.269531 168.652344 513.582031 150.796875 513.582031 129.335938 C 513.582031 58.019531 455.535156 0 384.1875 0 C 312.839844 0 254.789062 58.019531 254.789062 129.335938 C 254.789062 141.503906 256.015625 153.378906 258.402344 164.695312 C 223.359375 199.230469 193.679688 242.09375 193.679688 308.003906 C 193.679688 407.441406 231.695312 498.585938 292.929688 546.132812 C 301.96875 558.257812 312.039062 568.652344 322.835938 577.144531 L 320.652344 605.089844 C 318.691406 630.164062 307.984375 653.945312 290.503906 672.054688 C 288.386719 674.246094 288.449219 677.742188 290.644531 679.859375 C 291.714844 680.890625 293.097656 681.40625 294.480469 681.40625 C 295.925781 681.40625 297.371094 680.839844 298.453125 679.71875 C 317.707031 659.773438 329.503906 633.574219 331.664062 605.949219 L 333.328125 584.640625 C 348.96875 594.75 365.847656 601.058594 383.183594 603.035156 C 383.390625 603.058594 383.597656 603.070312 383.808594 603.070312 C 384.015625 603.070312 384.226562 603.058594 384.433594 603.035156 C 402.003906 601.027344 419.140625 594.578125 435.015625 584.222656 L 436.710938 605.949219 C 440.25 651.210938 469.832031 691.230469 512.082031 707.910156 L 534.332031 716.691406 C 557.734375 725.929688 577.332031 743.140625 589.511719 765.152344 C 590.515625 766.972656 592.402344 768 594.347656 768 C 595.25 768 596.167969 767.777344 597.011719 767.3125 C 599.683594 765.835938 600.648438 762.476562 599.171875 759.808594 C 585.761719 735.5625 564.171875 716.601562 538.386719 706.421875 Z M 563.648438 308.003906 C 563.648438 388.464844 538.246094 462.878906 495.671875 511.726562 C 511.554688 478.847656 521.257812 439.101562 524.019531 394.566406 C 524.949219 379.558594 518.402344 365.09375 506.507812 355.871094 C 491.414062 344.164062 468.507812 333.34375 441.988281 320.8125 C 415.015625 308.066406 384.757812 293.757812 357.03125 275.695312 C 367.101562 270.421875 377.410156 265.292969 387.460938 260.308594 C 403.566406 252.320312 419.808594 244.253906 435.039062 235.5 C 438.308594 237.414062 442.585938 239.746094 445.71875 241.574219 C 475.519531 258.945312 501.253906 273.949219 514.363281 296.488281 C 515.390625 298.253906 517.242188 299.234375 519.144531 299.234375 C 520.085938 299.234375 521.042969 298.996094 521.914062 298.488281 C 524.550781 296.957031 525.445312 293.578125 523.910156 290.941406 C 509.335938 265.882812 481.136719 249.441406 451.285156 232.039062 C 449.542969 231.023438 447.765625 229.980469 446 228.949219 C 462.996094 218.367188 478.246094 206.652344 489.9375 192.824219 C 527.039062 214.96875 563.648438 246.347656 563.648438 308.003906 Z M 345.089844 17.6875 C 330.660156 27.804688 320.484375 43.332031 317.0625 60.835938 C 315.675781 52.253906 314.640625 43.371094 313.960938 34.210938 C 323.375 27.25 333.839844 21.632812 345.089844 17.6875 Z M 303.582031 42.828125 C 306.019531 67.855469 311.121094 90.820312 318.777344 111.285156 C 311.996094 117.328125 305.042969 123.261719 297.71875 129.496094 C 287.882812 137.867188 277.789062 146.472656 267.929688 155.601562 C 266.542969 147.105469 265.835938 138.3125 265.835938 129.335938 C 265.835938 95.210938 280.382812 64.4375 303.582031 42.828125 Z M 204.722656 308.003906 C 204.722656 223.144531 255.640625 179.808594 304.878906 137.902344 C 312.910156 131.066406 321.210938 124 328.953125 117.007812 C 377.546875 74.035156 388.132812 34.101562 389.527344 11.175781 C 408.488281 12.019531 426.289062 17.371094 441.921875 26.140625 C 462.996094 101.609375 413.558594 129.292969 356.382812 161.285156 C 313.871094 185.078125 269.910156 209.679688 248.265625 256.4375 C 246.984375 259.203125 248.191406 262.484375 250.960938 263.765625 C 251.710938 264.109375 252.5 264.277344 253.277344 264.277344 C 255.359375 264.277344 257.355469 263.089844 258.289062 261.074219 C 278.429688 217.5625 320.800781 193.851562 361.78125 170.917969 C 391.566406 154.25 419.699219 138.507812 437.949219 115.996094 C 456.054688 93.667969 461.816406 67.050781 455.402344 34.960938 C 484.003906 56.570312 502.539062 90.816406 502.539062 129.335938 C 502.539062 190.894531 444.253906 219.808594 382.550781 250.421875 C 369.835938 256.726562 356.261719 263.476562 343.644531 270.296875 C 308.878906 289.140625 270.875 313.691406 252.636719 352.90625 C 246.25 366.640625 243.449219 382.289062 244.542969 398.167969 C 247.476562 440.785156 256.832031 478.96875 271.894531 510.769531 C 229.828125 461.878906 204.722656 387.8125 204.722656 308.003906 Z M 383.808594 591.992188 C 353.175781 588.292969 323.917969 569.488281 301.367188 538.984375 C 275.355469 503.8125 259.515625 454.855469 255.5625 397.410156 C 254.597656 383.386719 257.046875 369.609375 262.652344 357.5625 C 279.035156 322.335938 313.601562 299.375 345.953125 281.613281 C 375.671875 301.6875 408.339844 317.125 437.269531 330.792969 C 463.203125 343.046875 485.597656 353.628906 499.738281 364.59375 C 508.746094 371.574219 513.699219 382.527344 512.996094 393.886719 C 509.308594 453.351562 493.019531 503.816406 465.886719 539.824219 C 443.289062 569.816406 414.164062 588.320312 383.808594 591.992188 Z M 383.808594 591.992188 " fill-opacity="1" fill-rule="nonzero"/><path fill="#000000" d="M 634.351562 611.09375 L 594.671875 597.277344 C 591.6875 596.242188 589.34375 593.898438 588.304688 590.914062 L 574.484375 551.25 C 573.683594 548.960938 570.445312 548.960938 569.648438 551.25 L 555.828125 590.914062 C 554.789062 593.898438 552.445312 596.242188 549.460938 597.277344 L 509.777344 611.09375 C 507.488281 611.890625 507.488281 615.128906 509.777344 615.925781 L 549.460938 629.738281 C 552.445312 630.777344 554.789062 633.121094 555.828125 636.101562 L 569.648438 675.765625 C 570.445312 678.054688 573.683594 678.054688 574.484375 675.765625 L 588.304688 636.101562 C 589.34375 633.121094 591.6875 630.777344 594.671875 629.738281 L 634.351562 615.925781 C 636.644531 615.128906 636.644531 611.890625 634.351562 611.09375 Z M 634.351562 611.09375 " fill-opacity="1" fill-rule="nonzero"/><path fill="#000000" d="M 289.976562 696.089844 L 250.292969 682.277344 C 247.308594 681.238281 244.964844 678.894531 243.925781 675.914062 L 230.105469 636.246094 C 229.308594 633.957031 226.070312 633.957031 225.273438 636.246094 L 211.453125 675.910156 C 210.414062 678.894531 208.070312 681.238281 205.085938 682.277344 L 165.402344 696.089844 C 163.109375 696.886719 163.109375 700.125 165.402344 700.921875 L 205.085938 714.734375 C 208.066406 715.773438 210.414062 718.117188 211.453125 721.097656 L 225.273438 760.765625 C 226.070312 763.050781 229.308594 763.050781 230.105469 760.765625 L 243.925781 721.097656 C 244.964844 718.117188 247.308594 715.773438 250.292969 714.734375 L 289.976562 700.921875 C 292.265625 700.125 292.265625 696.886719 289.976562 696.089844 Z M 289.976562 696.089844 " fill-opacity="1" fill-rule="nonzero"/><path fill="#000000" d="M 189.289062 479.65625 L 149.605469 465.839844 C 146.625 464.800781 144.277344 462.457031 143.238281 459.476562 L 129.417969 419.8125 C 128.621094 417.523438 125.382812 417.523438 124.585938 419.8125 L 110.765625 459.476562 C 109.726562 462.457031 107.382812 464.800781 104.398438 465.839844 L 64.714844 479.65625 C 62.425781 480.453125 62.425781 483.6875 64.714844 484.484375 L 104.398438 498.300781 C 107.382812 499.339844 109.726562 501.683594 110.765625 504.664062 L 124.585938 544.328125 C 125.382812 546.617188 128.621094 546.617188 129.417969 544.328125 L 143.238281 504.664062 C 144.277344 501.683594 146.625 499.339844 149.605469 498.300781 L 189.289062 484.484375 C 191.582031 483.6875 191.582031 480.453125 189.289062 479.65625 Z M 189.289062 479.65625 " fill-opacity="1" fill-rule="nonzero"/><g clip-path="url(#5406b3b2c6)"><path fill="#000000" d="M 703.824219 371.320312 L 669.707031 359.441406 C 667.140625 358.550781 665.125 356.535156 664.230469 353.972656 L 652.347656 319.867188 C 651.664062 317.898438 648.878906 317.898438 648.195312 319.867188 L 636.3125 353.972656 C 635.417969 356.535156 633.402344 358.550781 630.835938 359.441406 L 596.71875 371.320312 C 594.75 372.003906 594.75 374.789062 596.71875 375.472656 L 630.835938 387.351562 C 633.402344 388.242188 635.417969 390.257812 636.3125 392.824219 L 648.195312 426.925781 C 648.878906 428.894531 651.664062 428.894531 652.347656 426.925781 L 664.230469 392.824219 C 665.125 390.257812 667.140625 388.242188 669.707031 387.351562 L 703.824219 375.472656 C 705.792969 374.789062 705.792969 372.003906 703.824219 371.320312 Z M 703.824219 371.320312 " fill-opacity="1" fill-rule="nonzero"/></g></svg>