<svg xmlns="http://www.w3.org/2000/svg" xmlns:xlink="http://www.w3.org/1999/xlink" width="1024" zoomAndPan="magnify" viewBox="0 0 768 767.999994" height="1024" preserveAspectRatio="xMidYMid meet" version="1.0"><defs><clipPath id="d8b4377b59"><path d="M 0 192 L 768 192 L 768 751.664062 L 0 751.664062 Z M 0 192 " clip-rule="nonzero"/></clipPath></defs><path fill="#000000" d="M 715.078125 280.742188 L 745.800781 280.742188 C 750 280.742188 753.359375 277.378906 753.359375 273.242188 C 753.359375 269.039062 750 265.679688 745.800781 265.679688 L 715.078125 265.679688 C 710.941406 265.679688 707.578125 269.039062 707.578125 273.242188 C 707.578125 277.378906 710.941406 280.742188 715.078125 280.742188 " fill-opacity="1" fill-rule="nonzero"/><path fill="#000000" d="M 698.160156 263.761719 C 702.300781 263.761719 705.660156 260.402344 705.660156 256.261719 L 705.660156 225.480469 C 705.660156 221.34375 702.300781 217.921875 698.160156 217.921875 C 693.960938 217.921875 690.601562 221.34375 690.601562 225.480469 L 690.601562 256.261719 C 690.601562 260.402344 693.960938 263.761719 698.160156 263.761719 " fill-opacity="1" fill-rule="nonzero"/><path fill="#000000" d="M 698.160156 328.5 C 702.300781 328.5 705.660156 325.140625 705.660156 321 L 705.660156 290.160156 C 705.660156 286.019531 702.300781 282.660156 698.160156 282.660156 C 693.960938 282.660156 690.601562 286.019531 690.601562 290.160156 L 690.601562 321 C 690.601562 325.140625 693.960938 328.5 698.160156 328.5 " fill-opacity="1" fill-rule="nonzero"/><path fill="#000000" d="M 642.898438 273.242188 C 642.898438 277.378906 646.261719 280.742188 650.460938 280.742188 L 681.121094 280.742188 C 685.320312 280.742188 688.679688 277.378906 688.679688 273.242188 C 688.679688 269.039062 685.320312 265.679688 681.121094 265.679688 L 650.460938 265.679688 C 646.261719 265.679688 642.898438 269.039062 642.898438 273.242188 " fill-opacity="1" fill-rule="nonzero"/><path fill="#000000" d="M 244.5 503.511719 C 240.359375 503.511719 237 506.875 237 511.011719 C 237 515.152344 240.359375 518.574219 244.5 518.574219 L 275.28125 518.574219 C 279.421875 518.574219 282.78125 515.152344 282.78125 511.011719 C 282.78125 506.875 279.421875 503.511719 275.28125 503.511719 L 244.5 503.511719 " fill-opacity="1" fill-rule="nonzero"/><path fill="#000000" d="M 235.078125 463.253906 C 235.078125 459.113281 231.71875 455.753906 227.578125 455.753906 C 223.378906 455.753906 220.019531 459.113281 220.019531 463.253906 L 220.019531 494.035156 C 220.019531 498.234375 223.378906 501.59375 227.578125 501.59375 C 231.71875 501.59375 235.078125 498.234375 235.078125 494.035156 L 235.078125 463.253906 " fill-opacity="1" fill-rule="nonzero"/><path fill="#000000" d="M 227.578125 520.433594 C 223.378906 520.433594 220.019531 523.792969 220.019531 527.992188 L 220.019531 558.769531 C 220.019531 568.671875 235.078125 568.730469 235.078125 558.769531 L 235.078125 527.992188 C 235.078125 523.792969 231.71875 520.433594 227.578125 520.433594 " fill-opacity="1" fill-rule="nonzero"/><path fill="#000000" d="M 179.878906 503.511719 C 175.738281 503.511719 172.320312 506.875 172.320312 511.011719 C 172.320312 515.152344 175.738281 518.574219 179.878906 518.574219 L 210.601562 518.574219 C 214.738281 518.574219 218.101562 515.152344 218.101562 511.011719 C 218.101562 506.875 214.738281 503.511719 210.601562 503.511719 L 179.878906 503.511719 " fill-opacity="1" fill-rule="nonzero"/><g clip-path="url(#d8b4377b59)"><path fill="#000000" d="M 749.820312 723.527344 C 742.019531 737.324219 730.078125 730.125 715.859375 731.085938 C 468.121094 746.804688 570.359375 725.207031 279.960938 724.484375 C 298.140625 697.007812 358.5 624.167969 488.339844 618.46875 C 531.898438 650.386719 633.960938 674.449219 671.519531 679.425781 C 681.421875 680.6875 683.339844 665.808594 673.5 664.488281 C 673.199219 664.488281 657.898438 662.386719 633.601562 656.867188 C 632.941406 655.726562 632.039062 654.707031 630.78125 653.988281 C 592.5 631.371094 502.140625 483.054688 492.121094 460.972656 C 486.238281 447.894531 480.601562 439.074219 456.960938 435.054688 C 437.699219 431.816406 430.859375 420.054688 433.261719 394.4375 C 434.160156 385.078125 435.359375 379.558594 436.320312 375.117188 C 439.140625 362.335938 439.738281 355.976562 432.121094 319.078125 C 426.421875 291.238281 428.039062 270.121094 430.558594 260.640625 C 431.039062 261.839844 431.578125 263.28125 432.179688 265.082031 L 433.980469 270.480469 C 443.820312 299.757812 447.839844 311.878906 472.019531 374.097656 C 479.519531 393.355469 491.941406 410.574219 507.898438 423.777344 C 790.5 658.066406 679.738281 605.089844 745.738281 687.046875 C 753.480469 696.585938 755.339844 713.625 749.820312 723.527344 Z M 68.160156 725.746094 L 68.160156 597.109375 C 126.71875 615.289062 198.179688 618.167969 259.441406 596.992188 L 259.441406 724.425781 C 257.699219 724.425781 255.898438 724.425781 254.101562 724.425781 C 184.140625 724.425781 115.320312 725.144531 68.160156 725.746094 Z M 15.058594 575.929688 C 27.78125 582.230469 40.441406 587.511719 53.101562 592.128906 L 53.101562 725.925781 C 36 726.167969 22.738281 726.347656 15.058594 726.464844 Z M 306.601562 575.570312 C 379.921875 533.152344 427.441406 570.351562 470.339844 604.609375 C 357.71875 614.75 299.039062 672.769531 274.5 705.707031 L 274.5 591.289062 C 285.480469 586.730469 296.21875 581.570312 306.601562 575.570312 Z M 582.539062 426.296875 C 582.359375 423.777344 582.300781 421.4375 582.300781 419.214844 C 582 404.9375 580.320312 394.558594 560.160156 381.535156 C 543.71875 370.976562 542.039062 357.476562 554.398438 334.859375 C 558.898438 326.640625 562.140625 322.019531 564.78125 318.359375 C 572.398438 307.679688 575.460938 302.101562 582.960938 265.140625 C 588.660156 237.242188 598.558594 218.523438 604.5 210.84375 C 604.5 212.101562 604.441406 213.664062 604.320312 215.523438 L 603.839844 221.164062 C 601.320312 252 600.238281 264.722656 598.019531 331.617188 C 597.359375 352.199219 601.980469 372.835938 611.460938 391.316406 C 657.71875 481.492188 686.160156 538.132812 702.480469 578.570312 C 681.78125 552.773438 648 521.8125 588.539062 471.472656 C 584.941406 447.476562 582.898438 430.253906 582.539062 426.296875 Z M 757.5 677.566406 C 747 664.546875 739.980469 652.96875 735.480469 641.449219 C 731.21875 595.128906 704.519531 539.753906 624.839844 384.476562 C 616.558594 368.21875 612.480469 350.15625 613.078125 332.160156 C 615.300781 265.621094 616.320312 252.960938 618.839844 222.363281 L 619.320312 216.722656 C 620.519531 201.664062 616.980469 193.382812 608.878906 192.242188 C 591.660156 189.84375 574.320312 232.441406 568.199219 262.140625 C 560.941406 297.839844 558.480469 301.257812 552.539062 309.597656 C 549.660156 313.621094 546.058594 318.597656 541.140625 327.660156 C 525.179688 356.9375 528.839844 379.316406 552 394.195312 C 566.941406 403.796875 567 409.078125 567.238281 419.515625 C 567.300781 422.035156 567.300781 424.617188 567.539062 427.496094 C 567.839844 431.035156 569.101562 441.894531 571.199219 456.894531 C 555.058594 443.394531 537.300781 428.574219 517.5 412.195312 C 503.519531 400.617188 492.660156 385.558594 486.121094 368.636719 C 462 306.78125 457.980469 294.71875 448.261719 265.679688 L 446.460938 260.28125 C 441.660156 245.941406 435.238281 239.703125 427.199219 241.863281 C 410.160156 246.421875 411.300781 292.441406 417.359375 322.078125 C 424.738281 357.777344 423.839844 361.917969 421.621094 371.9375 C 420.601562 376.738281 419.28125 382.738281 418.261719 392.996094 C 415.140625 426.175781 427.320312 445.316406 454.441406 449.933594 C 471.960938 452.875 474.121094 457.613281 478.441406 467.15625 C 487.378906 487.195312 557.460938 602.871094 601.921875 648.949219 C 519.539062 626.449219 506.101562 613.730469 479.519531 592.609375 C 335.878906 478.375 324.839844 587.449219 190.5 595.851562 C 124.738281 599.929688 69.421875 587.992188 11.039062 556.910156 C 8.699219 555.710938 5.941406 555.773438 3.660156 557.152344 C 1.378906 558.472656 0 560.929688 0 563.570312 L 0 734.144531 C 0 736.1875 0.839844 738.105469 2.21875 739.484375 C 3.660156 740.925781 5.699219 741.40625 7.679688 741.644531 C 602.519531 726.824219 410.398438 765.523438 716.820312 746.085938 C 720.121094 745.90625 723.660156 746.324219 726.71875 746.746094 C 771.058594 752.625 776.941406 701.625 757.5 677.566406 " fill-opacity="1" fill-rule="nonzero"/></g><path fill="#000000" d="M 222.601562 360.898438 C 187.679688 373.976562 71.820312 374.039062 36.839844 360.898438 C 71.761719 347.816406 187.621094 347.816406 222.601562 360.898438 Z M 132.839844 444.953125 C 132.71875 444.953125 132.601562 444.953125 132.480469 444.953125 C 81 444.773438 44.460938 418.074219 35.101562 375.898438 C 73.261719 389.15625 184.441406 389.035156 223.078125 376.378906 C 213.238281 412.015625 185.699219 444.953125 132.839844 444.953125 Z M 241.441406 361.199219 C 242.398438 327.238281 15.539062 326.878906 17.699219 361.617188 C 25.320312 485.035156 223.199219 501.171875 241.441406 361.199219 " fill-opacity="1" fill-rule="nonzero"/><path fill="#000000" d="M 77.28125 201.421875 C 77.28125 195.304688 82.261719 190.324219 88.378906 190.324219 L 185.039062 190.324219 C 180.421875 194.703125 179.28125 198.601562 177.238281 204.0625 C 174.601562 213.242188 176.160156 228.300781 168.421875 232.980469 C 168.421875 222.363281 161.578125 216.78125 153.839844 216.78125 C 145.738281 216.78125 139.199219 223.320312 139.199219 231.421875 L 139.199219 302.699219 C 139.199219 309.359375 129.179688 309.359375 129.179688 302.699219 L 129.179688 243.601562 C 129.179688 234 121.378906 226.203125 111.839844 226.203125 C 102.238281 226.203125 94.441406 234 94.441406 243.601562 L 94.441406 253.859375 C 94.441406 260.941406 85.800781 261.601562 80.820312 256.980469 C 78.539062 254.820312 77.28125 251.941406 77.28125 248.820312 Z M 221.101562 190.324219 L 313.738281 190.324219 L 309.058594 199.144531 L 198.78125 199.144531 C 211.019531 194.28125 221.101562 190.324219 221.101562 190.324219 Z M 338.398438 155.523438 L 350.699219 157.265625 L 326.28125 175.265625 L 295.679688 175.265625 Z M 221.640625 229.441406 L 232.078125 214.203125 L 245.519531 214.203125 C 237.839844 226.261719 237.121094 229.082031 221.640625 229.441406 Z M 90.480469 274.921875 C 101.101562 274.019531 109.5 264.839844 109.5 253.859375 L 109.5 243.601562 C 109.5 241.023438 114.121094 241.023438 114.121094 243.601562 L 114.121094 302.699219 C 114.121094 329.277344 154.261719 329.277344 154.261719 302.699219 L 153.480469 240 C 153.839844 242.882812 155.339844 245.460938 157.679688 247.261719 C 160.441406 249.480469 163.980469 250.203125 167.398438 249.421875 C 188.460938 244.382812 188.28125 229.5625 190.5 214.203125 L 214.738281 214.203125 C 209.578125 223.261719 201.78125 228.542969 206.21875 237.300781 C 208.261719 241.382812 212.339844 244.082031 216.839844 244.441406 C 217.078125 244.441406 217.261719 244.441406 217.5 244.441406 C 232.738281 244.863281 243.359375 241.742188 249.601562 234.601562 L 263.398438 214.203125 L 303.480469 214.203125 C 304.5 223.742188 315.421875 226.261719 324.660156 226.261719 C 336.121094 226.261719 347.28125 220.980469 354.539062 211.441406 L 361.261719 202.621094 C 365.398438 200.703125 377.460938 195.363281 392.761719 191.101562 C 410.339844 186.183594 421.140625 173.222656 425.28125 167.34375 L 670.859375 112.984375 C 674.878906 112.085938 677.460938 108.066406 676.558594 104.046875 C 675.660156 99.964844 671.578125 97.386719 667.621094 98.285156 L 419.039062 153.304688 C 416.941406 153.722656 415.140625 155.042969 414.121094 156.902344 C 400.800781 179.164062 381.898438 175.265625 352.980469 189.902344 C 351.960938 190.382812 351.058594 191.164062 350.398438 192.0625 C 341.28125 204.0625 335.339844 213.960938 319.980469 210.722656 L 328.441406 194.761719 L 375.898438 152.765625 C 378.78125 149.765625 378.660156 144.964844 375.660156 142.085938 C 372.660156 139.203125 367.921875 139.324219 365.039062 142.324219 L 358.140625 144.542969 C 329.101562 138.003906 331.261719 142.683594 270.238281 174.484375 C 269.878906 174.664062 269.640625 175.023438 269.339844 175.265625 L 251.519531 175.265625 L 266.460938 155.703125 L 315.421875 124.746094 C 402.601562 119.105469 407.039062 120.003906 425.101562 113.585938 L 651.359375 33.066406 C 655.261719 31.6875 657.300781 27.367188 655.921875 23.46875 C 654.539062 19.507812 650.21875 17.46875 646.320312 18.847656 C 400.140625 106.445312 412.859375 103.324219 395.398438 104.464844 C 392.28125 104.644531 311.699219 109.265625 309 110.945312 L 256.859375 143.945312 C 255.839844 144.605469 255 145.445312 254.398438 146.464844 L 233.578125 175.265625 L 219.839844 175.265625 C 219.71875 175.265625 219.601562 175.265625 219.480469 175.265625 L 88.378906 175.265625 C 73.921875 175.265625 62.21875 186.964844 62.21875 201.421875 C 62.21875 241.203125 58.078125 256.5 70.621094 268.019531 C 75.960938 272.941406 83.21875 275.460938 90.480469 274.921875 " fill-opacity="1" fill-rule="nonzero"/></svg>