<svg xmlns="http://www.w3.org/2000/svg" xmlns:xlink="http://www.w3.org/1999/xlink" width="1024" zoomAndPan="magnify" viewBox="0 0 768 767.999994" height="1024" preserveAspectRatio="xMidYMid meet" version="1.0"><defs><clipPath id="06358b9ff5"><path d="M 1 59 L 768 59 L 768 716.609375 L 1 716.609375 Z M 1 59 " clip-rule="nonzero"/></clipPath></defs><g clip-path="url(#06358b9ff5)"><path fill="#000000" d="M 735.390625 208.542969 C 720.609375 194.71875 702.402344 185.546875 681.1875 181.167969 C 672.972656 179.527344 664.761719 178.703125 656.273438 178.703125 C 643.957031 178.703125 631.363281 180.484375 618.496094 183.90625 L 464.914062 226.199219 L 422.207031 212.511719 C 411.394531 171.722656 392.777344 138.738281 366.222656 114.101562 C 297.917969 50.867188 193.890625 58.53125 154.742188 61.542969 C 125.722656 63.59375 104.640625 72.628906 92.324219 88.230469 C 79.730469 104.109375 80.003906 122.449219 80.960938 130.113281 C 35.519531 171.863281 43.046875 226.472656 46.332031 241.800781 L 10.46875 273.007812 C 9.648438 273.417969 3.488281 277.527344 1.84375 286.011719 C 0.339844 293.265625 2.667969 301.066406 8.550781 309.417969 C 11.5625 313.523438 12.796875 316.808594 11.835938 318.449219 C 4.71875 330.496094 2.253906 342.128906 4.445312 352.941406 L 4.445312 353.078125 C 6.226562 362.660156 9.097656 369.503906 13.070312 374.019531 C 17.039062 378.398438 14.300781 387.980469 10.46875 395.371094 C 8.960938 398.519531 8.140625 401.804688 8.277344 405.226562 C 8.414062 411.660156 10.332031 423.703125 21.417969 433.011719 C 34.832031 444.371094 57.28125 447.792969 88.21875 443.140625 C 99.441406 441.496094 109.570312 444.234375 119.152344 451.625 C 160.214844 483.378906 174.726562 586.445312 177.464844 609.300781 C 161.722656 613.136719 148.71875 608.753906 140.503906 604.375 C 136.808594 602.457031 132.429688 603.144531 129.417969 606.019531 C 126.40625 608.890625 125.449219 613.410156 127.363281 617.242188 C 144.75 653.785156 177.738281 681.570312 225.371094 699.5 C 255.484375 710.859375 288.472656 716.609375 322.285156 716.609375 C 335.152344 716.609375 348.15625 715.789062 361.292969 714.007812 C 455.742188 701.828125 515.421875 676.78125 543.621094 637.773438 C 569.355469 602.046875 562.101562 563.722656 557.171875 538.402344 C 556.625 535.117188 555.941406 532.105469 555.53125 529.234375 C 554.84375 524.988281 551.558594 521.703125 547.316406 521.292969 C 542.9375 520.609375 538.96875 523.210938 537.1875 527.316406 C 533.082031 536.761719 520.351562 539.085938 520.351562 539.222656 C 504.0625 538.539062 491.332031 532.929688 481.339844 521.976562 C 457.113281 495.425781 456.015625 443.550781 457.523438 414.945312 C 458.617188 394.824219 453.828125 374.019531 443.421875 352.804688 C 443.152344 352.121094 442.875 351.4375 442.601562 350.890625 L 464.914062 343.636719 L 618.496094 386.066406 C 620 386.476562 621.371094 386.613281 623.011719 386.886719 C 623.285156 400.027344 620.410156 412.890625 614.390625 424.390625 L 607.132812 438.488281 C 594.402344 462.851562 591.804688 490.636719 599.46875 517.050781 L 605.21875 536.347656 C 608.777344 548.257812 619.589844 556.46875 631.773438 556.46875 L 643.132812 556.46875 C 644.914062 556.605469 686.523438 559.070312 695.96875 479.683594 C 704.59375 405.773438 741.414062 355.40625 741.824219 354.859375 C 758.386719 336.105469 767.96875 311.195312 767.96875 284.917969 C 767.96875 255.625 756.0625 227.703125 735.390625 208.542969 Z M 443.835938 414.261719 C 441.917969 451.761719 445.066406 502.542969 471.210938 531.148438 C 483.667969 544.835938 499.957031 552.089844 521.035156 552.773438 C 521.71875 552.636719 534.859375 550.859375 543.894531 541.550781 C 548.546875 565.914062 554.707031 599.175781 532.535156 629.695312 C 506.9375 665.144531 448.761719 688.824219 359.515625 700.460938 C 314.480469 706.34375 269.722656 701.554688 230.164062 686.636719 C 190.332031 671.714844 161.722656 649.679688 144.886719 621.074219 C 154.878906 624.359375 168.703125 626.273438 184.582031 621.621094 C 185.128906 621.484375 185.539062 621.074219 186.085938 620.800781 L 186.496094 620.800781 C 188.277344 620.117188 229.753906 605.195312 246.179688 560.027344 C 260.6875 519.789062 250.421875 469.558594 215.378906 410.703125 C 124.628906 258.226562 145.433594 193.214844 145.707031 192.664062 C 146.9375 189.105469 145.160156 185.136719 141.601562 183.90625 C 138.042969 182.535156 134.074219 184.453125 132.839844 187.875 C 131.746094 190.75 108.75 258.5 203.609375 417.683594 C 236.320312 472.703125 246.316406 518.96875 233.3125 555.238281 C 223.457031 582.476562 202.511719 597.257812 190.605469 603.828125 C 186.496094 570.976562 170.757812 474.210938 127.503906 440.8125 C 114.910156 431.097656 101.085938 427.402344 86.300781 429.589844 C 59.746094 433.558594 40.308594 431.097656 30.179688 422.472656 C 23.609375 416.996094 21.964844 409.878906 21.964844 404.953125 C 21.964844 403.859375 22.101562 402.761719 22.652344 401.667969 C 26.347656 394.414062 33.738281 376.484375 23.335938 364.851562 C 22.101562 363.480469 19.640625 359.648438 17.859375 350.339844 C 16.355469 342.8125 18.269531 334.464844 23.609375 325.429688 C 26.347656 320.777344 27.851562 312.703125 19.640625 301.339844 C 16.21875 296.414062 14.574219 292.171875 15.121094 288.886719 C 15.667969 286.011719 17.585938 284.644531 18.542969 283.960938 L 57.007812 250.5625 C 59.882812 248.234375 60.976562 244.539062 60.15625 240.84375 C 57.691406 230.714844 47.699219 178.019531 91.640625 138.875 C 94.101562 136.683594 95.199219 133.402344 94.789062 130.113281 C 93.964844 125.597656 92.597656 109.996094 103 96.71875 C 112.992188 84.261719 130.648438 77.007812 155.699219 75.09375 C 193.34375 72.355469 292.992188 64.964844 356.914062 124.09375 C 379.636719 145.171875 396.0625 173.230469 406.464844 207.449219 L 403.867188 206.625 L 401.265625 206.351562 L 397.84375 206.761719 C 365.539062 219.21875 366.359375 278.484375 366.496094 284.78125 C 366.359375 291.488281 365.539062 350.75 397.84375 363.207031 L 402.769531 363.617188 L 429.597656 354.996094 C 430.148438 356.363281 430.558594 357.59375 431.105469 358.828125 C 440.550781 377.851562 444.792969 396.46875 443.835938 414.261719 Z M 457.933594 331.589844 L 401.402344 349.792969 C 382.785156 340.761719 379.773438 300.382812 380.183594 284.78125 C 379.773438 269.3125 382.921875 227.976562 401.402344 220.175781 L 457.933594 238.378906 Z M 682.28125 478.042969 C 674.617188 543.191406 645.324219 542.78125 643.542969 542.78125 L 631.773438 542.78125 C 625.613281 543.191406 620.136719 538.675781 618.359375 532.519531 L 612.609375 513.082031 C 605.902344 490.222656 608.230469 466 619.179688 444.785156 L 626.570312 430.683594 C 633.140625 418.09375 636.425781 403.996094 636.5625 389.761719 C 643.269531 390.71875 649.839844 391.265625 656.273438 391.265625 C 664.761719 391.265625 673.109375 390.445312 681.1875 388.800781 C 692.546875 386.476562 703.089844 382.644531 712.667969 377.441406 C 701.035156 400.574219 687.347656 435.339844 682.28125 478.042969 Z M 726.082031 351.4375 C 713.21875 363.480469 697.066406 371.554688 678.449219 375.390625 C 660.652344 379.085938 641.628906 378.125 622.054688 372.789062 L 471.621094 331.316406 L 471.621094 238.652344 L 622.054688 197.183594 C 641.628906 191.707031 660.652344 190.886719 678.449219 194.582031 C 697.066406 198.414062 713.21875 206.488281 726.082031 218.535156 C 744.015625 235.230469 754.28125 259.457031 754.28125 284.917969 C 754.28125 310.511719 744.015625 334.738281 726.082031 351.4375 Z M 726.082031 351.4375 " fill-opacity="1" fill-rule="nonzero"/></g><path fill="#000000" d="M 703.363281 266.4375 C 703.363281 270.273438 700.351562 273.28125 696.519531 273.28125 L 641.902344 273.28125 C 638.070312 273.28125 635.058594 270.273438 635.058594 266.4375 C 635.058594 262.605469 638.070312 259.59375 641.902344 259.59375 L 696.519531 259.59375 C 700.351562 259.59375 703.363281 262.605469 703.363281 266.4375 Z M 703.363281 266.4375 " fill-opacity="1" fill-rule="nonzero"/><path fill="#000000" d="M 703.363281 309.28125 C 703.363281 313.113281 700.351562 316.125 696.519531 316.125 L 641.902344 316.125 C 638.070312 316.125 635.058594 313.113281 635.058594 309.28125 C 635.058594 305.585938 638.070312 302.4375 641.902344 302.4375 L 696.519531 302.4375 C 700.351562 302.4375 703.363281 305.585938 703.363281 309.28125 Z M 703.363281 309.28125 " fill-opacity="1" fill-rule="nonzero"/><path fill="#000000" d="M 336.382812 242.210938 C 337.066406 245.910156 334.738281 249.605469 331.042969 250.289062 C 324.609375 251.65625 319 252.203125 313.933594 252.203125 C 304.898438 252.203125 297.644531 250.5625 290.527344 248.917969 C 280.261719 246.59375 270.542969 244.539062 255.621094 247.550781 C 252.0625 248.507812 248.367188 246.046875 247.546875 242.351562 C 246.863281 238.652344 249.1875 234.960938 252.886719 234.136719 C 270.679688 230.441406 282.316406 233.042969 293.402344 235.644531 C 303.667969 237.832031 313.386719 240.023438 328.308594 236.875 C 331.867188 236.054688 335.5625 238.519531 336.382812 242.210938 Z M 336.382812 242.210938 " fill-opacity="1" fill-rule="nonzero"/><path fill="#000000" d="M 336.382812 285.191406 C 337.066406 288.886719 334.738281 292.445312 331.042969 293.265625 C 324.609375 294.496094 319 295.046875 313.933594 295.046875 C 304.898438 295.046875 297.644531 293.402344 290.527344 291.898438 C 280.261719 289.570312 270.542969 287.382812 255.621094 290.527344 C 252.0625 291.351562 248.367188 288.886719 247.546875 285.191406 C 246.863281 281.496094 249.1875 277.9375 252.886719 277.117188 C 270.679688 273.417969 282.179688 276.019531 293.402344 278.484375 C 303.667969 280.8125 313.386719 282.863281 328.308594 279.851562 C 331.867188 279.03125 335.5625 281.359375 336.382812 285.191406 Z M 336.382812 285.191406 " fill-opacity="1" fill-rule="nonzero"/><path fill="#000000" d="M 336.382812 328.03125 C 337.066406 331.726562 334.738281 335.421875 331.042969 336.105469 C 324.609375 337.476562 319 338.023438 313.933594 338.023438 C 304.898438 338.023438 297.644531 336.378906 290.527344 334.738281 C 280.261719 332.410156 270.542969 330.359375 255.621094 333.371094 C 252.0625 334.191406 248.367188 331.863281 247.546875 328.03125 C 246.863281 324.335938 249.1875 320.777344 252.886719 319.957031 C 270.679688 316.261719 282.316406 318.859375 293.402344 321.324219 C 303.667969 323.652344 313.386719 325.84375 328.308594 322.691406 C 331.867188 321.871094 335.5625 324.335938 336.382812 328.03125 Z M 336.382812 328.03125 " fill-opacity="1" fill-rule="nonzero"/></svg>