<svg xmlns="http://www.w3.org/2000/svg" xmlns:xlink="http://www.w3.org/1999/xlink" width="1024" zoomAndPan="magnify" viewBox="0 0 768 767.999994" height="1024" preserveAspectRatio="xMidYMid meet" version="1.0"><defs><clipPath id="015ec07c47"><path d="M 16.320312 0 L 751 0 L 751 768 L 16.320312 768 Z M 16.320312 0 " clip-rule="nonzero"/></clipPath></defs><g clip-path="url(#015ec07c47)"><path fill="#000000" d="M 701.792969 757.800781 C 699.964844 760.050781 696.660156 760.390625 694.410156 758.5625 C 692.160156 756.734375 691.820312 753.425781 693.648438 751.175781 L 694.3125 750.355469 C 721.84375 716.476562 740.730469 693.234375 739.902344 655.976562 C 739.554688 640.320312 736.632812 619.730469 732.484375 597.339844 C 728.332031 574.921875 722.90625 550.574219 717.605469 527.542969 C 713.289062 508.804688 708.613281 498.878906 702.234375 494.253906 C 696.175781 489.863281 687.5625 489.96875 675.488281 491.445312 C 674.675781 491.542969 671.761719 491.886719 668.429688 492.273438 C 662.84375 492.929688 655.917969 493.738281 651.203125 494.355469 L 613.675781 544.53125 C 604.066406 557.378906 595.402344 567.121094 586.011719 573.480469 C 576.765625 579.742188 567.015625 582.683594 555.375 581.996094 C 550.011719 588.644531 543.898438 594.230469 537.824219 598.25 C 529.039062 604.070312 520.058594 606.734375 512.863281 604.996094 C 509.277344 612.121094 505.085938 618.296875 499.800781 623.316406 C 490.984375 631.6875 479.421875 636.625 463.070312 637.066406 C 463.023438 637.066406 462.976562 637.066406 462.933594 637.066406 L 462.703125 637.566406 C 456 652.300781 445.691406 665.066406 435.132812 673.332031 C 423.601562 682.359375 411.402344 686.207031 402.269531 682.070312 C 402.140625 682.011719 402.015625 681.949219 401.894531 681.882812 C 393.144531 677.675781 388.082031 666.296875 387.164062 652.140625 C 386.359375 639.691406 388.675781 624.785156 394.449219 610.921875 C 387.386719 599.648438 386.8125 584.953125 389.585938 569.460938 C 391.335938 559.667969 394.425781 549.546875 398.011719 539.832031 C 394.039062 541.667969 389.628906 543.042969 384.699219 543.914062 C 379.652344 554.085938 373.121094 563.023438 366.222656 569.6875 C 355.699219 579.851562 343.964844 584.933594 334.445312 581.765625 L 334.402344 581.75 L 334.402344 581.757812 C 325.066406 578.628906 318.726562 567.738281 316.316406 553.570312 C 314.707031 544.105469 314.792969 532.984375 316.890625 521.789062 C 315.328125 519.949219 313.832031 517.726562 312.472656 515.441406 C 309.53125 510.476562 307.074219 504.910156 306.328125 502.851562 C 303.359375 494.65625 302.871094 485.265625 303.996094 475.394531 C 304.746094 468.804688 306.222656 461.964844 308.15625 455.113281 C 241.46875 470.855469 204.621094 456.59375 163.234375 440.566406 C 145.847656 433.835938 127.636719 426.785156 105.953125 421.648438 C 96.199219 419.335938 85.285156 416.84375 75.65625 417.144531 C 66.890625 417.417969 58.96875 420.0625 53.773438 427.601562 C 42.089844 444.554688 38.527344 478.609375 35.09375 511.414062 C 33.023438 531.175781 31.003906 550.496094 27.214844 565.964844 C 26.535156 568.785156 23.695312 570.515625 20.878906 569.835938 C 18.0625 569.152344 16.332031 566.316406 17.011719 563.496094 C 20.625 548.742188 22.613281 529.761719 24.644531 510.34375 C 28.214844 476.226562 31.921875 440.808594 45.136719 421.632812 C 49.960938 414.628906 56.214844 410.574219 63.246094 408.480469 C 66.300781 392.558594 70.570312 376.863281 74.847656 361.125 C 83.164062 330.546875 91.519531 299.816406 90.398438 270.160156 C 88.738281 226.371094 101.964844 205.726562 121.109375 175.84375 C 123.261719 172.480469 125.492188 169.003906 127.246094 166.222656 C 130.125 161.652344 132.214844 156.941406 133.71875 152.121094 C 135.242188 147.238281 136.15625 142.257812 136.675781 137.207031 C 136.863281 135.410156 137.023438 133.597656 137.167969 131.777344 C 137 130.875 137.070312 129.953125 137.363281 129.105469 C 137.8125 122.582031 138.050781 115.945312 138.292969 109.28125 C 138.855469 93.703125 139.425781 77.976562 142.574219 62.945312 C 143.273438 59.597656 143.671875 57.65625 144.066406 55.71875 C 147.039062 41.203125 149.910156 27.183594 155.257812 13.007812 C 157.617188 6.753906 161.03125 3.027344 164.679688 1.359375 C 167.238281 0.1875 169.855469 0 172.351562 0.652344 C 174.703125 1.269531 176.84375 2.605469 178.621094 4.535156 C 181.851562 8.046875 183.992188 13.753906 183.738281 20.585938 C 183.730469 20.726562 183.722656 20.863281 183.707031 20.996094 L 183.714844 21 C 183.167969 25.75 182.75 29.683594 182.328125 33.714844 C 182.078125 36.089844 181.824219 38.5 181.558594 40.929688 C 181.828125 41.023438 182.078125 41.113281 182.308594 41.199219 C 213.484375 52.71875 233.113281 78.769531 242.078125 110.371094 C 250.878906 141.402344 249.324219 177.878906 238.25 210.980469 C 237.601562 212.910156 236.992188 214.652344 236.421875 216.199219 C 229.230469 235.683594 225.046875 253.363281 222.878906 270.089844 C 229.386719 254.71875 236.300781 236.179688 243.507812 216.859375 C 260.515625 171.261719 279.121094 121.375 298.554688 96.582031 C 304.519531 88.96875 314.75 80.976562 325.625 75.582031 C 335.453125 70.707031 346.011719 67.851562 354.859375 69.082031 C 373.667969 71.699219 386.441406 78.671875 395.109375 88.773438 C 403.695312 98.78125 408.003906 111.636719 410.039062 126.242188 C 411.863281 139.34375 412.949219 154.992188 412.898438 171.082031 C 417.636719 164.839844 422.75 159.640625 425.78125 157.03125 C 432.03125 151.644531 439.457031 148.644531 447.433594 147.585938 C 459.078125 146.042969 471.886719 148.707031 483.777344 154.125 C 495.492188 159.46875 506.402344 167.523438 514.449219 176.871094 C 521.734375 185.335938 526.742188 194.929688 528.035156 204.675781 C 528.769531 210.222656 528.945312 215.742188 528.585938 221.125 C 528.230469 226.515625 527.347656 231.8125 525.960938 236.90625 C 525.910156 237.144531 525.839844 237.378906 525.753906 237.613281 L 523.597656 243.480469 C 527.664062 241.542969 532.019531 240.3125 536.558594 239.710938 C 548.203125 238.167969 561.007812 240.828125 572.902344 246.25 C 584.617188 251.589844 595.527344 259.648438 603.574219 268.996094 C 610.859375 277.457031 615.867188 287.054688 617.15625 296.800781 C 617.890625 302.34375 618.066406 307.863281 617.710938 313.25 C 617.355469 318.636719 616.472656 323.933594 615.082031 329.03125 C 615.03125 329.265625 614.964844 329.503906 614.878906 329.738281 L 605.957031 354.011719 C 607.933594 351.855469 609.972656 349.824219 612.074219 347.953125 C 622.710938 338.46875 634.890625 332.945312 648.21875 335.628906 C 658.839844 337.765625 668.859375 342.058594 676.988281 348.875 C 684.363281 355.058594 690.164062 363.28125 693.429688 373.792969 C 704.390625 409.097656 699.507812 441.125 692.945312 480.222656 C 698.769531 480.78125 703.824219 482.414062 708.40625 485.734375 C 716.980469 491.949219 722.90625 503.734375 727.847656 525.195312 C 733.148438 548.210938 738.582031 572.621094 742.8125 595.449219 C 747.046875 618.304688 750.03125 639.441406 750.394531 655.769531 C 751.308594 696.871094 731.433594 721.328125 702.457031 756.984375 Z M 187.054688 667.609375 L 195.363281 700.570312 L 222.074219 710.574219 C 224.789062 711.585938 226.171875 714.609375 225.160156 717.324219 C 224.609375 718.8125 223.453125 719.898438 222.074219 720.410156 L 195.363281 730.414062 L 187.03125 763.46875 C 186.324219 766.285156 183.472656 768 180.652344 767.296875 C 178.671875 766.800781 177.234375 765.238281 176.804688 763.375 L 168.496094 730.414062 L 141.78125 720.410156 C 139.066406 719.398438 137.683594 716.378906 138.695312 713.660156 C 139.25 712.175781 140.40625 711.085938 141.785156 710.574219 L 168.496094 700.570312 L 176.828125 667.519531 C 177.53125 664.699219 180.386719 662.984375 183.203125 663.691406 C 185.1875 664.1875 186.621094 665.746094 187.054688 667.609375 Z M 185.832031 705.792969 L 181.929688 690.308594 L 178.027344 705.792969 L 178.015625 705.792969 C 177.609375 707.410156 176.4375 708.808594 174.753906 709.4375 L 158.582031 715.492188 L 174.421875 721.421875 C 176.144531 721.9375 177.558594 723.320312 178.027344 725.191406 L 181.929688 740.675781 L 185.832031 725.191406 L 185.84375 725.195312 C 186.25 723.574219 187.417969 722.175781 189.101562 721.546875 L 205.277344 715.492188 L 189.4375 709.5625 C 187.714844 709.050781 186.300781 707.664062 185.832031 705.792969 Z M 281.4375 586.980469 L 291.75 636.792969 L 324.734375 651.824219 C 327.371094 653.027344 328.53125 656.140625 327.328125 658.777344 C 326.78125 659.976562 325.84375 660.867188 324.734375 661.375 L 291.753906 676.402344 L 281.417969 726.300781 C 280.839844 729.140625 278.066406 730.976562 275.226562 730.394531 C 273.074219 729.957031 271.5 728.253906 271.117188 726.214844 L 260.800781 676.402344 L 227.816406 661.371094 C 225.183594 660.167969 224.023438 657.054688 225.226562 654.417969 C 225.773438 653.21875 226.710938 652.328125 227.820312 651.820312 L 260.800781 636.792969 L 271.132812 586.894531 C 271.714844 584.054688 274.484375 582.21875 277.324219 582.800781 C 279.480469 583.238281 281.054688 584.941406 281.4375 586.980469 Z M 282.007812 641.515625 L 276.277344 613.828125 L 270.542969 641.515625 L 270.542969 641.511719 C 270.21875 643.101562 269.167969 644.515625 267.582031 645.238281 L 242.65625 656.597656 L 267.453125 667.898438 C 268.988281 668.550781 270.1875 669.921875 270.542969 671.679688 L 276.277344 699.363281 L 282.007812 671.679688 L 282.011719 671.683594 C 282.335938 670.09375 283.386719 668.679688 284.972656 667.957031 L 309.898438 656.597656 L 285.101562 645.296875 C 283.566406 644.644531 282.367188 643.273438 282.007812 641.515625 Z M 659.46875 764.894531 C 658.261719 766.25 656.183594 766.371094 654.824219 765.164062 C 653.46875 763.957031 653.347656 761.878906 654.554688 760.519531 L 655.253906 759.734375 C 684.546875 726.78125 704.636719 704.179688 705.472656 666.222656 C 705.507812 664.410156 707.003906 662.972656 708.816406 663.007812 C 710.625 663.042969 712.066406 664.539062 712.03125 666.351562 C 711.140625 706.761719 690.402344 730.09375 660.167969 764.109375 Z M 338.449219 193.515625 C 336.640625 193.664062 335.050781 192.316406 334.902344 190.507812 C 334.753906 188.695312 336.101562 187.105469 337.910156 186.957031 C 342.996094 186.53125 348.078125 187.261719 352.792969 189.015625 C 357.496094 190.761719 361.816406 193.527344 365.386719 197.171875 C 366.660156 198.464844 366.640625 200.542969 365.347656 201.816406 C 364.058594 203.085938 361.980469 203.070312 360.707031 201.777344 C 357.808594 198.816406 354.308594 196.578125 350.507812 195.164062 C 346.714844 193.753906 342.597656 193.167969 338.449219 193.515625 Z M 322.683594 210.71875 C 321.050781 211.5 319.09375 210.808594 318.3125 209.175781 C 317.53125 207.539062 318.222656 205.582031 319.855469 204.800781 C 321.8125 203.859375 323.808594 203.113281 325.816406 202.566406 C 327.859375 202.011719 329.957031 201.640625 332.085938 201.460938 C 335.332031 201.191406 338.648438 201.378906 341.941406 202.0625 C 345.109375 202.714844 348.234375 203.832031 351.222656 205.429688 C 352.785156 206.269531 354.261719 207.210938 355.640625 208.246094 C 357.058594 209.308594 358.371094 210.457031 359.5625 211.679688 C 361.277344 213.429688 362.777344 215.324219 364.046875 217.324219 C 365.328125 219.339844 366.40625 221.511719 367.261719 223.796875 C 367.894531 225.496094 367.03125 227.386719 365.332031 228.015625 C 363.636719 228.648438 361.75 227.785156 361.117188 226.085938 C 360.441406 224.292969 359.566406 222.535156 358.492188 220.847656 C 357.445312 219.199219 356.242188 217.667969 354.882812 216.285156 C 353.894531 215.273438 352.832031 214.339844 351.707031 213.492188 C 350.589844 212.65625 349.398438 211.894531 348.136719 211.21875 C 345.71875 209.921875 343.191406 209.023438 340.628906 208.492188 C 337.992188 207.945312 335.296875 207.796875 332.625 208.019531 C 330.910156 208.164062 329.203125 208.46875 327.539062 208.921875 C 325.828125 209.386719 324.203125 209.988281 322.683594 210.71875 Z M 311.859375 443.371094 C 312.085938 442.707031 312.292969 442.097656 312.53125 441.398438 C 318 425.332031 334.15625 377.886719 338.542969 358.96875 C 336.230469 359.472656 333.8125 359.707031 331.285156 359.644531 L 329.375 365.355469 C 324.230469 380.71875 315.296875 394.488281 305.652344 403.800781 C 295.128906 413.96875 283.394531 419.050781 273.875 415.882812 L 273.832031 415.867188 L 273.832031 415.871094 C 264.496094 412.742188 258.152344 401.851562 255.746094 387.683594 C 253.527344 374.644531 254.523438 358.46875 259.578125 343.277344 L 259.582031 343.257812 L 259.578125 343.257812 C 260.113281 341.652344 260.644531 340.046875 261.179688 338.433594 C 254.597656 332.789062 250.320312 325.597656 248.292969 317.417969 C 246.132812 308.707031 246.574219 298.925781 249.546875 288.78125 C 252.695312 278.023438 255.980469 267.402344 259.296875 256.683594 C 266.28125 234.097656 273.402344 211.066406 278.632812 189.011719 C 279.355469 185.96875 279.667969 183.589844 279.535156 181.066406 C 279.394531 178.371094 278.765625 175.261719 277.605469 170.871094 C 276.867188 168.066406 278.542969 165.191406 281.351562 164.453125 C 284.15625 163.710938 287.03125 165.390625 287.769531 168.195312 C 289.109375 173.269531 289.84375 177 290.027344 180.53125 C 290.21875 184.230469 289.816406 187.46875 288.875 191.4375 C 283.65625 213.46875 276.425781 236.84375 269.335938 259.769531 C 265.953125 270.707031 262.601562 281.546875 259.625 291.703125 C 257.179688 300.0625 256.78125 307.988281 258.496094 314.90625 C 259.640625 319.515625 261.746094 323.695312 264.839844 327.277344 C 270.484375 310.007812 276.121094 292.515625 282.210938 275.667969 C 285.417969 266.105469 292.222656 258.730469 300.609375 254.550781 C 308.996094 250.371094 318.980469 249.378906 328.539062 252.585938 L 328.546875 252.585938 C 338.105469 255.792969 345.476562 262.601562 349.652344 270.992188 C 353.828125 279.382812 354.820312 289.375 351.617188 298.9375 L 334.882812 348.90625 C 343.535156 347.597656 350.613281 340.636719 356.359375 331.824219 C 363.851562 320.335938 369.140625 305.628906 372.835938 295.175781 L 393.300781 237.273438 C 397.402344 225.671875 399.9375 211.507812 401.257812 196.652344 C 401.28125 196.304688 401.3125 195.953125 401.351562 195.601562 C 401.554688 193.203125 401.726562 190.792969 401.867188 188.371094 C 403.121094 166.992188 402.042969 145.015625 399.628906 127.683594 C 397.855469 114.941406 394.230469 103.886719 387.125 95.605469 C 380.101562 87.417969 369.433594 81.726562 353.417969 79.496094 C 346.816406 78.578125 338.394531 80.980469 330.273438 85.007812 C 320.726562 89.742188 311.871094 96.605469 306.824219 103.042969 C 288.382812 126.574219 270.074219 175.65625 253.339844 220.523438 C 241.707031 251.714844 230.820312 280.898438 220.929688 298.703125 C 220.714844 320.046875 223.066406 340.578125 225.558594 362.359375 C 228.546875 388.480469 231.742188 416.363281 231.085938 449.753906 C 253.363281 452.816406 278.898438 451.839844 311.859375 443.371094 Z M 220.625 447.984375 C 221.128906 416.125 218.019531 388.996094 215.109375 363.554688 C 209.515625 314.703125 204.625 271.96875 226.546875 212.578125 C 227.21875 210.761719 227.800781 209.117188 228.292969 207.644531 C 238.710938 176.503906 240.199219 142.265625 231.957031 113.210938 C 224.035156 85.289062 207.058594 62.242188 180.332031 51.707031 C 177.761719 72.78125 173.925781 94.589844 165.210938 112.128906 C 162.855469 116.867188 160.101562 121.292969 156.832031 125.191406 C 154.121094 128.425781 151.046875 131.300781 147.550781 133.707031 C 147.421875 135.238281 147.28125 136.761719 147.128906 138.277344 C 146.539062 144.015625 145.492188 149.683594 143.757812 155.25 C 142.003906 160.875 139.539062 166.410156 136.132812 171.820312 C 133.664062 175.734375 131.78125 178.675781 129.953125 181.523438 C 111.855469 209.773438 99.355469 229.289062 100.886719 269.789062 C 102.074219 301.128906 93.523438 332.582031 85.011719 363.882812 C 81.089844 378.304688 77.175781 392.691406 74.300781 406.691406 C 74.65625 406.671875 75.011719 406.660156 75.367188 406.648438 C 86.390625 406.304688 97.992188 408.949219 108.335938 411.398438 C 130.617188 416.675781 149.242188 423.886719 167.019531 430.769531 C 184.785156 437.652344 201.683594 444.191406 220.625 447.984375 Z M 320.976562 449.210938 C 320.933594 449.347656 320.890625 449.480469 320.839844 449.613281 C 317.816406 458.683594 315.433594 467.902344 314.445312 476.589844 C 313.488281 484.964844 313.839844 492.757812 316.203125 499.269531 C 316.734375 500.734375 318.359375 504.425781 320.457031 508.222656 L 342.644531 441.960938 C 342.71875 441.671875 342.8125 441.386719 342.933594 441.117188 C 346.195312 431.765625 352.921875 424.550781 361.179688 420.4375 C 369.4375 416.320312 379.25 415.296875 388.675781 418.324219 C 388.976562 418.398438 389.269531 418.496094 389.550781 418.621094 C 398.898438 421.882812 406.109375 428.613281 410.222656 436.878906 C 414.402344 445.269531 415.390625 455.257812 412.1875 464.820312 L 389.945312 531.242188 C 389.882812 531.425781 389.820312 531.605469 389.757812 531.789062 C 396.210938 529.585938 401.304688 526.066406 405.503906 521.457031 C 411.601562 514.765625 416.023438 505.652344 419.992188 494.851562 L 515.839844 234.109375 C 517.027344 229.730469 517.785156 225.152344 518.097656 220.46875 C 518.410156 215.695312 518.261719 210.851562 517.625 206.035156 C 516.617188 198.433594 512.515625 190.722656 506.507812 183.746094 C 499.421875 175.511719 489.78125 168.402344 479.414062 163.675781 C 469.222656 159.03125 458.410156 156.726562 448.789062 158 C 442.789062 158.796875 437.25 161.015625 432.652344 164.972656 C 429.148438 167.992188 422.464844 174.964844 417.496094 182.84375 C 414.554688 187.5 412.269531 192.378906 411.808594 196.65625 L 411.75 197.316406 L 411.75 197.320312 C 411.742188 197.414062 411.734375 197.503906 411.726562 197.59375 C 410.332031 213.269531 407.621094 228.3125 403.214844 240.773438 L 382.75 298.671875 C 378.886719 309.605469 373.347656 324.996094 365.164062 337.542969 C 360.875 344.125 355.886719 349.890625 350.0625 353.882812 C 350.066406 354.097656 350.054688 354.3125 350.03125 354.53125 C 348.589844 368.105469 328.714844 426.484375 322.488281 444.773438 C 321.652344 447.230469 321.164062 448.648438 320.976562 449.210938 Z M 148.785156 109.652344 C 148.671875 112.722656 148.5625 115.785156 148.433594 118.835938 L 148.769531 118.441406 C 151.492188 115.195312 153.804688 111.472656 155.789062 107.476562 C 166.199219 86.523438 169.222656 57.839844 171.875 32.644531 C 172.371094 27.957031 172.851562 23.378906 173.253906 19.902344 C 173.339844 16.152344 172.359375 13.257812 170.886719 11.65625 C 170.464844 11.199219 170.066406 10.910156 169.71875 10.820312 C 169.519531 10.769531 169.289062 10.792969 169.039062 10.90625 C 167.761719 11.492188 166.375 13.304688 165.089844 16.710938 C 160.015625 30.167969 157.234375 43.753906 154.355469 57.816406 C 153.765625 60.679688 153.175781 63.570312 152.859375 65.085938 C 149.882812 79.300781 149.332031 94.546875 148.785156 109.652344 Z M 562.71875 571.359375 C 569.054688 570.6875 574.707031 568.46875 580.128906 564.792969 C 588.386719 559.199219 596.320312 550.214844 605.285156 538.234375 L 643.953125 486.527344 C 644.0625 486.363281 644.179688 486.207031 644.308594 486.054688 L 667.054688 455.640625 C 668.792969 453.320312 672.082031 452.851562 674.398438 454.589844 C 676.714844 456.328125 677.1875 459.617188 675.449219 461.9375 L 659.933594 482.679688 C 662.449219 482.378906 664.957031 482.085938 667.238281 481.820312 C 669.578125 481.546875 671.640625 481.304688 674.210938 480.988281 C 677.046875 480.644531 679.734375 480.367188 682.292969 480.195312 C 688.769531 441.667969 693.777344 410.332031 683.390625 376.878906 C 680.777344 368.464844 676.140625 361.886719 670.238281 356.941406 C 663.507812 351.296875 655.113281 347.71875 646.164062 345.917969 C 636.613281 343.996094 627.398438 348.386719 619.066406 355.816406 C 606.835938 366.722656 596.628906 383.921875 589.652344 398.363281 L 562.875 471.214844 C 564.476562 471.125 566.089844 471.15625 567.699219 471.316406 C 571.882812 471.722656 576.039062 472.972656 579.921875 475.125 C 587.546875 479.359375 592.742188 486.316406 594.972656 494.113281 C 597.203125 501.898438 596.46875 510.550781 592.234375 518.183594 L 563.625 569.773438 C 563.328125 570.308594 563.027344 570.835938 562.71875 571.359375 Z M 558.726562 482.496094 L 518.992188 590.597656 C 518.433594 592.121094 517.863281 593.613281 517.277344 595.078125 C 521.242188 595.226562 526.492188 593.144531 532.023438 589.484375 C 540.257812 584.035156 548.605469 575.210938 554.449219 564.667969 L 583.058594 513.082031 C 585.871094 508.007812 586.351562 502.226562 584.851562 496.996094 C 583.359375 491.773438 579.894531 487.121094 574.820312 484.304688 C 572.234375 482.871094 569.476562 482.039062 566.710938 481.769531 C 564.003906 481.503906 561.292969 481.761719 558.726562 482.496094 Z M 340.230469 275.683594 C 337.242188 269.683594 331.996094 264.820312 325.207031 262.546875 C 318.417969 260.269531 311.300781 260.988281 305.300781 263.976562 C 299.300781 266.964844 294.441406 272.214844 292.167969 279.007812 L 269.53125 346.589844 L 269.527344 346.589844 C 265.042969 360.085938 264.152344 374.421875 266.113281 385.957031 C 267.882812 396.363281 271.785156 404.109375 277.164062 405.910156 L 277.160156 405.917969 L 277.167969 405.921875 C 282.683594 407.757812 290.589844 403.742188 298.371094 396.226562 C 306.898438 387.992188 314.820312 375.746094 319.417969 362.023438 L 341.660156 295.601562 C 343.9375 288.808594 343.21875 281.6875 340.230469 275.683594 Z M 327.746094 521.042969 C 327.71875 521.1875 327.6875 521.328125 327.652344 521.46875 C 325.359375 532.144531 325.15625 542.84375 326.683594 551.839844 C 328.453125 562.246094 332.355469 569.992188 337.734375 571.796875 L 337.730469 571.800781 L 337.738281 571.804688 C 343.253906 573.640625 351.160156 569.628906 358.941406 562.113281 C 367.46875 553.875 375.394531 541.628906 379.988281 527.90625 L 402.234375 461.488281 C 404.507812 454.695312 403.789062 447.570312 400.800781 441.570312 C 397.816406 435.570312 392.566406 430.707031 385.78125 428.429688 L 385.777344 428.429688 C 378.988281 426.15625 371.871094 426.871094 365.871094 429.863281 C 359.875 432.851562 355.011719 438.101562 352.738281 444.890625 C 345.710938 467.390625 337.578125 490.058594 330.105469 512.476562 L 330.097656 512.476562 C 329.15625 515.304688 328.375 518.171875 327.746094 521.042969 Z M 414.378906 527.292969 C 408.441406 541.027344 402.523438 556.71875 399.910156 571.3125 C 398.148438 581.152344 397.886719 590.46875 400.191406 598.207031 L 425.097656 543.460938 C 429.269531 534.296875 436.808594 527.671875 445.59375 524.378906 C 454.371094 521.09375 464.402344 521.140625 473.574219 525.316406 C 482.734375 529.488281 489.355469 537.03125 492.644531 545.820312 C 495.929688 554.601562 495.882812 564.636719 491.710938 573.8125 L 467.851562 626.25 C 478.648438 625.148438 486.507812 621.449219 492.558594 615.699219 C 499.75 608.875 504.710938 598.960938 509.117188 586.976562 L 604.960938 326.230469 C 606.152344 321.855469 606.910156 317.277344 607.222656 312.589844 C 607.535156 307.816406 607.386719 302.972656 606.75 298.15625 C 605.742188 290.558594 601.640625 282.847656 595.632812 275.867188 C 588.546875 267.632812 578.90625 260.523438 568.539062 255.800781 C 558.347656 251.152344 547.535156 248.847656 537.914062 250.125 C 531.914062 250.917969 526.371094 253.136719 521.777344 257.097656 C 518.203125 260.175781 515.429688 267.148438 512.988281 273.285156 C 511.972656 275.84375 511.007812 278.273438 510.082031 280.25 L 429.867188 498.476562 C 425.699219 509.816406 420.964844 519.605469 414.378906 527.292969 Z M 405.351562 612.210938 C 405.296875 612.359375 405.234375 612.507812 405.164062 612.652344 L 405.152344 612.675781 C 399.277344 625.65625 396.902344 639.824219 397.65625 651.480469 C 398.328125 661.878906 401.335938 669.914062 406.378906 672.390625 C 406.449219 672.417969 406.519531 672.449219 406.589844 672.480469 C 411.894531 674.882812 420.167969 671.71875 428.675781 665.058594 C 438.011719 657.75 447.164062 646.386719 453.160156 633.203125 L 482.164062 569.449219 C 485.132812 562.921875 485.160156 555.761719 482.8125 549.484375 C 480.464844 543.21875 475.746094 537.839844 469.210938 534.863281 C 462.6875 531.894531 455.53125 531.867188 449.257812 534.21875 C 442.992188 536.5625 437.617188 541.289062 434.644531 547.824219 Z M 405.351562 612.210938 " fill-opacity="1" fill-rule="nonzero"/></g></svg>