<svg xmlns="http://www.w3.org/2000/svg" xmlns:xlink="http://www.w3.org/1999/xlink" width="1024" zoomAndPan="magnify" viewBox="0 0 768 767.999994" height="1024" preserveAspectRatio="xMidYMid meet" version="1.0"><path fill="#000000" d="M 394.339844 254.097656 L 394.339844 495.152344 C 394.339844 501.910156 388.855469 507.394531 382.097656 507.394531 C 375.335938 507.394531 369.851562 501.910156 369.851562 495.152344 L 369.851562 254.097656 C 369.851562 247.339844 375.335938 241.855469 382.097656 241.855469 C 388.875 241.855469 394.339844 247.339844 394.339844 254.097656 Z M 317.84375 333.78125 C 327.003906 342.941406 331.59375 354.957031 331.59375 366.953125 C 331.59375 378.945312 327.003906 390.960938 317.84375 400.101562 C 308.683594 409.257812 296.6875 413.847656 284.691406 413.847656 C 272.695312 413.847656 260.679688 409.257812 251.539062 400.121094 C 242.378906 390.960938 237.808594 378.964844 237.808594 366.96875 C 237.808594 354.976562 242.398438 342.960938 251.554688 333.820312 C 260.714844 324.664062 272.714844 320.074219 284.710938 320.074219 C 296.667969 320.074219 308.667969 324.644531 317.824219 333.800781 L 317.84375 333.800781 Z M 307.007812 366.933594 C 307.007812 361.21875 304.839844 355.507812 300.476562 351.148438 C 296.15625 346.789062 290.421875 344.617188 284.691406 344.617188 C 278.976562 344.617188 273.265625 346.804688 268.90625 351.148438 C 264.542969 355.507812 262.355469 361.21875 262.355469 366.933594 C 262.355469 372.644531 264.523438 378.355469 268.886719 382.71875 C 273.246094 387.078125 278.960938 389.246094 284.671875 389.246094 C 290.386719 389.246094 296.097656 387.058594 300.457031 382.71875 C 304.820312 378.375 307.007812 372.664062 307.007812 366.933594 Z M 446.367188 415.464844 C 437.207031 406.308594 432.617188 394.292969 432.617188 382.296875 L 432.671875 382.296875 C 432.671875 370.300781 437.242188 358.324219 446.367188 349.1875 L 446.367188 349.128906 C 455.523438 339.972656 467.542969 335.382812 479.539062 335.382812 C 491.496094 335.382812 503.496094 339.953125 512.652344 349.109375 L 512.710938 349.109375 C 521.871094 358.269531 526.460938 370.285156 526.460938 382.277344 C 526.460938 394.238281 521.871094 406.230469 512.730469 415.390625 L 512.730469 415.449219 L 511.929688 416.171875 C 502.902344 424.816406 491.230469 429.136719 479.558594 429.136719 L 479.558594 429.195312 C 467.597656 429.195312 455.601562 424.605469 446.441406 415.464844 Z M 457.144531 382.316406 L 457.199219 382.316406 C 457.199219 388.027344 459.390625 393.742188 463.734375 398.101562 C 468.074219 402.460938 473.789062 404.652344 479.519531 404.652344 L 479.519531 404.707031 C 484.984375 404.707031 490.507812 402.671875 494.8125 398.652344 L 495.304688 398.121094 C 499.667969 393.78125 501.855469 388.066406 501.855469 382.335938 C 501.855469 376.625 499.6875 370.910156 495.324219 366.550781 C 490.984375 362.191406 485.269531 360.019531 479.539062 360.019531 C 473.824219 360.019531 468.113281 362.210938 463.75 366.550781 C 459.351562 370.894531 457.144531 376.625 457.144531 382.316406 Z M 763.066406 488.734375 L 490.316406 761.453125 C 485.519531 766.25 477.75 766.25 472.949219 761.453125 L 136.195312 424.757812 C 134.269531 422.835938 133.109375 420.417969 132.730469 417.902344 L 88.339844 220.53125 C 87.367188 216.1875 88.816406 211.867188 91.804688 209.011719 L 114.621094 186.199219 C 104.851562 177.898438 94.96875 168.796875 85.160156 159.007812 C 56.308594 130.144531 33.363281 100.441406 19.632812 75.765625 C 3.65625 47.089844 -0.0390625 23.15625 12.320312 10.796875 C 22.964844 0.152344 41.664062 1.199219 64.480469 11.597656 C 80.324219 18.832031 99.023438 30.734375 118.65625 46.25 L 119.53125 46.957031 C 132.996094 57.65625 146.914062 70.03125 160.644531 83.742188 C 166.777344 89.871094 173.003906 96.480469 179.042969 103.203125 C 181.992188 106.496094 184.90625 109.808594 187.707031 113.101562 L 210.691406 90.121094 C 213.777344 87.035156 218.097656 85.914062 222.058594 86.808594 L 420.316406 131.402344 C 422.675781 131.933594 424.714844 133.09375 426.292969 134.675781 L 763.050781 471.371094 C 767.867188 476.148438 767.867188 483.9375 763.066406 488.734375 Z M 132.023438 168.796875 L 170.320312 130.503906 C 167.3125 126.964844 164.128906 123.308594 160.816406 119.613281 C 155.332031 113.519531 149.410156 107.257812 143.277344 101.105469 C 115.894531 73.726562 88.167969 52.230469 65.507812 39.605469 L 59.167969 36.199219 L 54.308594 33.855469 C 43.683594 29.019531 35.761719 26.601562 31.78125 27.230469 C 30.964844 27.4375 30.296875 27.761719 29.800781 28.257812 L 29.15625 28.847656 C 26.546875 33.285156 31.191406 46.214844 41.019531 63.84375 C 53.644531 86.503906 75.144531 114.226562 102.527344 141.605469 C 112.410156 151.488281 122.3125 160.589844 132.023438 168.796875 Z M 737.015625 480.050781 L 411.421875 154.496094 L 223.277344 112.1875 L 195.589844 139.875 C 195.53125 139.929688 195.476562 139.988281 195.398438 140.0625 L 151.332031 184.125 C 161.558594 191.722656 171.328125 198.136719 180.316406 203.125 C 180.621094 203.296875 180.90625 203.449219 181.210938 203.621094 C 183.515625 198.5 186.773438 193.699219 190.980469 189.492188 C 190.980469 189.492188 190.980469 189.4375 190.980469 189.4375 C 198.101562 182.316406 206.9375 177.917969 216.15625 176.242188 C 216.574219 175.992188 216.992188 175.765625 217.449219 175.574219 C 220.648438 174.183594 224.117188 174.28125 227.105469 175.515625 C 238.492188 176.089844 249.730469 180.734375 258.429688 189.4375 C 267.742188 198.746094 272.410156 210.953125 272.410156 223.15625 C 272.410156 235.363281 267.742188 247.566406 258.429688 256.878906 C 249.121094 266.1875 236.914062 270.855469 224.707031 270.855469 C 212.5 270.855469 200.292969 266.1875 190.980469 256.878906 L 190.257812 256.078125 C 182.945312 248.421875 178.699219 238.960938 177.441406 229.191406 C 174.488281 227.765625 171.5 226.242188 168.414062 224.527344 C 157.675781 218.550781 145.984375 210.820312 133.832031 201.640625 L 113.722656 221.746094 L 156.039062 409.867188 L 481.613281 735.40625 Z M 208.328125 206.800781 C 206.195312 208.914062 204.597656 211.351562 203.472656 213.960938 C 209.777344 216.035156 214.15625 216.339844 216.023438 214.492188 C 216.460938 214 216.59375 212.457031 216.441406 210.039062 C 216.289062 207.734375 215.773438 205.105469 214.957031 202.191406 C 212.574219 203.296875 210.308594 204.820312 208.328125 206.800781 Z M 207.664062 238.847656 C 207.71875 238.902344 207.757812 238.960938 207.796875 239.019531 L 208.328125 239.511719 C 212.84375 244.023438 218.765625 246.292969 224.6875 246.292969 C 230.609375 246.292969 236.53125 244.023438 241.046875 239.511719 C 245.558594 235 247.824219 229.078125 247.824219 223.15625 C 247.824219 217.234375 245.558594 211.3125 241.046875 206.800781 C 240.949219 206.707031 240.835938 206.628906 240.742188 206.515625 C 240.816406 207.183594 240.894531 207.847656 240.929688 208.496094 C 241.539062 218.09375 239.140625 226.011719 233.371094 231.78125 L 233.105469 232.050781 C 227.066406 237.933594 218.328125 240.027344 207.664062 238.847656 Z M 472.472656 630.09375 C 477.273438 634.890625 485.0625 634.890625 489.839844 630.09375 L 631.539062 488.410156 C 636.335938 483.613281 636.335938 475.824219 631.539062 471.046875 C 626.738281 466.246094 618.953125 466.246094 614.171875 471.046875 L 472.472656 612.726562 C 467.675781 617.523438 467.675781 625.292969 472.472656 630.09375 Z M 444.691406 589.039062 L 586.386719 447.359375 C 591.1875 442.5625 591.1875 434.792969 586.386719 429.996094 C 581.589844 425.195312 573.800781 425.195312 569.019531 429.996094 L 427.324219 571.675781 C 422.523438 576.472656 422.523438 584.242188 427.324219 589.039062 C 432.101562 593.839844 439.890625 593.839844 444.691406 589.039062 Z M 444.691406 589.039062 " fill-opacity="1" fill-rule="nonzero"/></svg>