<svg xmlns="http://www.w3.org/2000/svg" xmlns:xlink="http://www.w3.org/1999/xlink" width="1024" zoomAndPan="magnify" viewBox="0 0 768 767.999994" height="1024" preserveAspectRatio="xMidYMid meet" version="1.0"><defs><clipPath id="cb75add28c"><path d="M 0.0820312 100.320312 L 478.402344 100.320312 L 478.402344 667.320312 L 0.0820312 667.320312 Z M 0.0820312 100.320312 " clip-rule="nonzero"/></clipPath><clipPath id="cb4ef0d2f1"><path d="M 575 506 L 767.902344 506 L 767.902344 609 L 575 609 Z M 575 506 " clip-rule="nonzero"/></clipPath></defs><path fill="#000000" d="M 508.488281 271.941406 C 513.53125 279.785156 520.164062 286.410156 528.007812 291.449219 C 520.164062 296.488281 513.53125 303.113281 508.488281 310.957031 C 503.449219 303.113281 496.820312 296.488281 488.972656 291.449219 C 496.820312 286.410156 503.449219 279.785156 508.488281 271.941406 Z M 473.976562 296.914062 C 487.21875 302.398438 497.535156 312.707031 503.023438 325.941406 C 503.9375 328.152344 506.097656 329.59375 508.488281 329.59375 C 510.886719 329.59375 513.042969 328.152344 513.960938 325.941406 C 519.449219 312.707031 529.765625 302.398438 543.007812 296.914062 C 545.21875 296 546.660156 293.839844 546.660156 291.449219 C 546.660156 289.054688 545.21875 286.898438 543.007812 285.984375 C 529.765625 280.5 519.449219 270.1875 513.960938 256.957031 C 513.042969 254.746094 510.886719 253.304688 508.488281 253.304688 C 506.097656 253.304688 503.9375 254.746094 503.023438 256.957031 C 497.535156 270.1875 487.21875 280.5 473.976562 285.984375 C 471.761719 286.898438 470.324219 289.054688 470.324219 291.449219 C 470.324219 293.839844 471.761719 296 473.976562 296.914062 " fill-opacity="1" fill-rule="nonzero"/><path fill="#000000" d="M 588.546875 469.894531 C 590.414062 472.257812 592.546875 474.390625 594.910156 476.253906 C 592.546875 478.121094 590.414062 480.253906 588.546875 482.617188 C 586.675781 480.253906 584.542969 478.121094 582.183594 476.253906 C 584.542969 474.390625 586.675781 472.257812 588.546875 469.894531 Z M 583.074219 496.476562 C 583.992188 498.6875 586.148438 500.128906 588.546875 500.128906 C 590.9375 500.128906 593.097656 498.6875 594.015625 496.476562 C 596.800781 489.75 602.046875 484.507812 608.777344 481.722656 C 610.988281 480.804688 612.429688 478.648438 612.429688 476.253906 C 612.429688 473.863281 610.988281 471.707031 608.777344 470.792969 C 602.046875 468.003906 596.800781 462.761719 594.015625 456.035156 C 593.097656 453.824219 590.9375 452.382812 588.546875 452.382812 C 586.148438 452.382812 583.992188 453.824219 583.074219 456.035156 C 580.289062 462.761719 575.042969 468.003906 568.3125 470.792969 C 566.101562 471.707031 564.660156 473.863281 564.660156 476.253906 C 564.660156 478.648438 566.101562 480.804688 568.3125 481.722656 C 575.042969 484.507812 580.289062 489.75 583.074219 496.476562 " fill-opacity="1" fill-rule="nonzero"/><path fill="#000000" d="M 650.285156 363.21875 C 653.796875 368.25 658.148438 372.601562 663.179688 376.105469 C 658.148438 379.613281 653.796875 383.964844 650.285156 388.992188 C 646.777344 383.964844 642.425781 379.613281 637.390625 376.105469 C 642.425781 372.601562 646.777344 368.25 650.285156 363.21875 Z M 622.851562 381.574219 C 632.867188 385.71875 640.667969 393.515625 644.816406 403.523438 C 645.734375 405.734375 647.890625 407.175781 650.285156 407.175781 C 652.679688 407.175781 654.835938 405.734375 655.757812 403.523438 C 659.90625 393.515625 667.707031 385.71875 677.722656 381.574219 C 679.933594 380.652344 681.375 378.496094 681.375 376.105469 C 681.375 373.710938 679.933594 371.554688 677.722656 370.640625 C 667.707031 366.492188 659.90625 358.695312 655.757812 348.6875 C 654.835938 346.480469 652.679688 345.039062 650.285156 345.039062 C 647.890625 345.039062 645.734375 346.480469 644.816406 348.6875 C 640.667969 358.695312 632.867188 366.492188 622.851562 370.640625 C 620.640625 371.554688 619.199219 373.710938 619.199219 376.105469 C 619.199219 378.496094 620.640625 380.652344 622.851562 381.574219 " fill-opacity="1" fill-rule="nonzero"/><g clip-path="url(#cb75add28c)"><path fill="#000000" d="M 393.089844 253.285156 C 366.582031 271.1875 329.8125 273.53125 307.84375 274.929688 C 300.097656 275.425781 294.984375 275.75 291.730469 276.636719 C 274.285156 281.390625 261.8125 296.753906 260.699219 314.867188 C 257.449219 367.609375 242.042969 385.265625 233.144531 391.09375 C 233.066406 391.144531 232.964844 391.210938 232.742188 391.117188 C 232.597656 391.050781 232.339844 390.882812 232.28125 390.488281 C 230.296875 378.113281 223.464844 367.191406 213.039062 359.746094 C 203.449219 352.894531 191.414062 349.488281 180.015625 350.394531 C 169.019531 351.269531 159.148438 356.117188 152.21875 364.050781 C 144.480469 372.90625 140.390625 385.527344 140.390625 400.550781 C 140.390625 423.039062 145.570312 440.65625 155.792969 452.910156 C 161.550781 459.820312 161.222656 470.253906 155.039062 477.191406 C 142.011719 491.789062 124.191406 507.214844 117.027344 513.253906 C 106.289062 506.625 72.546875 484 46.253906 446.851562 C 27.851562 420.851562 16.714844 392.949219 13.167969 363.917969 C 8.722656 327.558594 16.210938 289.164062 35.429688 249.808594 C 39.335938 241.804688 38.550781 232.332031 33.367188 225.085938 C 12.371094 195.695312 30.691406 163.820312 43.476562 147.433594 C 61.363281 124.511719 84.96875 112.15625 110.519531 112.15625 C 112.695312 112.15625 114.878906 112.242188 117.074219 112.421875 C 133.902344 113.796875 146.765625 120 153.289062 129.886719 C 157.273438 135.929688 164.902344 138.519531 171.839844 136.179688 C 182.832031 132.472656 205.578125 125.792969 234.414062 122.695312 C 269.375 118.941406 302.527344 121.46875 332.957031 130.207031 C 362.992188 138.84375 387.746094 158.144531 402.644531 184.558594 C 410.4375 198.375 413.925781 211.035156 413.015625 222.179688 C 412 234.574219 405.296875 245.039062 393.089844 253.285156 Z M 462.570312 401.121094 C 452.808594 397.523438 435.472656 369.273438 437.558594 335.773438 C 438.980469 313.027344 436.550781 279.195312 417.417969 245.433594 C 428.851562 227.457031 427.492188 204.515625 412.960938 178.75 C 396.523438 149.609375 369.269531 128.332031 336.226562 118.839844 C 263.140625 97.839844 194.273438 116.128906 168.054688 124.96875 C 166.210938 125.589844 164.203125 124.9375 163.171875 123.378906 C 154.605469 110.386719 138.574219 102.308594 118.039062 100.632812 C 85.878906 98.003906 56.082031 112.039062 34.140625 140.15625 C 19.085938 159.445312 11.640625 178.507812 12.007812 196.8125 C 12.328125 212.746094 18.558594 224.722656 23.734375 231.960938 C 26.386719 235.671875 26.789062 240.523438 24.789062 244.621094 C 4.550781 286.0625 -3.3125 326.683594 1.414062 365.351562 C 5.207031 396.347656 17.039062 426.066406 36.589844 453.683594 C 64.8125 493.558594 100.414062 517.039062 111.40625 523.707031 C 111.363281 525.964844 111.433594 529.019531 111.539062 533.414062 C 112.160156 558.484375 113.449219 610.644531 91.359375 658.96875 C 90.003906 661.941406 91.3125 665.449219 94.289062 666.804688 C 97.246094 668.160156 100.765625 666.871094 102.132812 663.886719 C 125.355469 613.082031 123.96875 557.050781 123.378906 533.121094 C 123.289062 529.445312 123.191406 525.679688 123.246094 523.496094 C 129.421875 518.34375 149.207031 501.5 163.875 485.066406 C 173.9375 473.789062 174.371094 456.714844 164.886719 445.339844 C 159.113281 438.414062 152.230469 425.023438 152.230469 400.550781 C 152.230469 377.957031 162.96875 363.617188 180.953125 362.1875 C 197.484375 360.871094 217.335938 372.039062 220.589844 392.359375 C 221.273438 396.621094 224.027344 400.203125 227.960938 401.9375 C 231.785156 403.628906 236.152344 403.273438 239.636719 400.988281 C 252.765625 392.386719 269.125 370.585938 272.511719 315.59375 C 273.320312 302.539062 282.292969 291.472656 294.84375 288.050781 C 296.9375 287.480469 302.601562 287.121094 308.59375 286.738281 C 330.25 285.359375 370.546875 282.792969 399.71875 263.085938 C 403.300781 260.667969 406.5 258.078125 409.324219 255.332031 C 424.996094 285.21875 427.003906 314.824219 425.742188 335.035156 C 423.507812 370.890625 441.503906 405.96875 458.484375 412.226562 C 464.953125 414.59375 467.503906 419.121094 466.066406 425.695312 C 464.308594 433.839844 456.730469 435.855469 447.003906 437.648438 C 444.921875 438.03125 442.953125 438.390625 441.246094 438.886719 C 436.816406 440.164062 433.332031 443.476562 431.914062 447.742188 C 430.449219 452.160156 431.296875 456.917969 434.226562 460.777344 C 435.261719 462.148438 437.019531 465.328125 437.148438 471.230469 C 437.191406 472.816406 431.597656 478.675781 413.179688 483.574219 C 410.238281 484.394531 408.042969 486.769531 407.457031 489.777344 C 406.875 492.769531 408.011719 495.773438 410.398438 497.613281 C 413.527344 500.042969 417.242188 501.980469 420.832031 503.859375 C 424.222656 505.632812 430.539062 508.933594 430.796875 510.714844 C 431.042969 512.441406 430.851562 512.976562 430.855469 512.976562 C 430.707031 513.214844 429.933594 513.835938 429.371094 514.292969 C 427.875 515.5 425.832031 517.148438 423.886719 519.929688 C 419.3125 526.488281 421.234375 533.605469 422.777344 539.320312 C 424.910156 547.214844 425.71875 551.585938 419.179688 557.054688 C 407.152344 567.148438 382.425781 564.816406 366.859375 563.035156 C 348.511719 560.929688 331.179688 558.941406 313.855469 573.457031 C 300.933594 584.3125 285.683594 608.398438 286.425781 661.507812 C 286.46875 664.746094 289.109375 667.34375 292.339844 667.34375 C 292.367188 667.34375 292.398438 667.339844 292.425781 667.339844 C 295.695312 667.296875 298.308594 664.609375 298.265625 661.34375 C 297.550781 610.320312 312.5 590.054688 321.46875 582.519531 C 334.886719 571.28125 348.402344 572.824219 365.511719 574.785156 C 372.527344 575.59375 379.785156 576.425781 387.632812 576.425781 L 387.632812 576.390625 C 392.585938 576.832031 401.582031 575.726562 401.6875 575.707031 C 412.5 574.253906 420.945312 571.023438 426.785156 566.125 C 439.421875 555.550781 436.285156 543.929688 434.207031 536.238281 C 432.800781 531.019531 432.316406 528.539062 433.59375 526.699219 C 434.574219 525.300781 435.609375 524.464844 436.804688 523.503906 C 440.476562 520.539062 443.679688 517.207031 442.515625 509.035156 C 441.394531 501.257812 433.730469 497.25 426.320312 493.375 C 425.75 493.078125 425.179688 492.78125 424.613281 492.480469 C 440.808594 486.921875 449.195312 479.554688 448.988281 470.957031 C 448.792969 462.207031 445.992188 456.71875 443.671875 453.636719 C 443.117188 452.90625 442.929688 452.132812 443.148438 451.464844 C 443.289062 451.054688 443.640625 450.511719 444.53125 450.25 C 445.667969 449.925781 447.359375 449.613281 449.148438 449.285156 C 457.859375 447.683594 474.074219 444.695312 477.636719 428.207031 C 480.332031 415.890625 474.554688 405.507812 462.570312 401.121094 " fill-opacity="1" fill-rule="nonzero"/></g><g clip-path="url(#cb4ef0d2f1)"><path fill="#000000" d="M 587.933594 546.695312 L 611.304688 542.722656 L 611.300781 570.308594 L 587.933594 566.335938 C 590.015625 559.925781 590.015625 553.105469 587.933594 546.695312 Z M 635.214844 541.910156 L 635.214844 571.394531 L 623.140625 571.394531 L 623.140625 541.632812 L 635.21875 541.632812 C 635.21875 541.722656 635.214844 541.816406 635.214844 541.910156 Z M 762.21875 589.226562 C 757.304688 589.035156 752.277344 588.933594 747.265625 588.933594 C 723.3125 588.933594 699.25 591.355469 675.734375 596.136719 C 669.257812 597.453125 662.710938 596.105469 657.308594 592.335938 C 651.953125 588.605469 648.3125 582.800781 647.332031 576.417969 C 647.144531 575.203125 647.054688 573.960938 647.054688 572.714844 L 647.054688 541.910156 C 647.054688 534.703125 650.253906 527.960938 655.835938 523.402344 C 661.417969 518.84375 668.667969 517.058594 675.734375 518.496094 C 699.246094 523.273438 723.3125 525.695312 747.265625 525.695312 C 752.207031 525.695312 757.242188 525.59375 762.21875 525.390625 C 765.488281 525.261719 768.027344 522.507812 767.894531 519.242188 C 767.765625 515.980469 765.007812 513.441406 761.746094 513.574219 C 756.921875 513.765625 752.050781 513.863281 747.265625 513.863281 C 724.101562 513.863281 700.832031 511.519531 678.09375 506.902344 C 667.535156 504.75 656.691406 507.425781 648.34375 514.238281 C 643.25 518.398438 639.488281 523.785156 637.324219 529.796875 C 637 529.796875 617.582031 529.800781 617.222656 529.800781 C 615.890625 529.800781 614.371094 530.273438 583.488281 535.445312 C 580.542969 535.945312 578.023438 537.734375 576.578125 540.347656 C 575.128906 542.964844 574.957031 546.050781 576.105469 548.808594 C 578.164062 553.777344 578.164062 559.253906 576.105469 564.222656 C 574.957031 566.980469 575.128906 570.066406 576.578125 572.679688 C 578.023438 575.296875 580.542969 577.085938 583.488281 577.582031 C 618.078125 583.453125 616.496094 583.230469 617.222656 583.230469 L 636.792969 583.230469 C 639.125 590.777344 643.964844 597.464844 650.539062 602.046875 C 656.609375 606.269531 663.632812 608.464844 670.847656 608.464844 C 673.25 608.464844 675.675781 608.222656 678.089844 607.726562 C 700.832031 603.109375 724.101562 600.765625 747.265625 600.765625 C 752.121094 600.765625 756.992188 600.863281 761.75 601.050781 C 765.015625 601.179688 767.765625 598.636719 767.894531 595.371094 C 768.027344 592.109375 765.480469 589.355469 762.21875 589.226562 " fill-opacity="1" fill-rule="nonzero"/></g><path fill="#000000" d="M 707.671875 556.515625 C 707.671875 559.929688 704.898438 562.699219 701.484375 562.699219 C 698.066406 562.699219 695.289062 559.929688 695.289062 556.515625 C 695.289062 553.101562 698.066406 550.328125 701.484375 550.328125 C 704.898438 550.328125 707.671875 553.101562 707.671875 556.515625 Z M 683.449219 556.515625 C 683.449219 566.449219 691.539062 574.53125 701.484375 574.53125 C 711.425781 574.53125 719.511719 566.449219 719.511719 556.515625 C 719.511719 546.578125 711.425781 538.496094 701.484375 538.496094 C 691.539062 538.496094 683.449219 546.578125 683.449219 556.515625 " fill-opacity="1" fill-rule="nonzero"/><path fill="#000000" d="M 545.832031 550.597656 L 493.304688 550.597656 C 490.035156 550.597656 487.386719 553.246094 487.386719 556.515625 C 487.386719 559.78125 490.035156 562.429688 493.304688 562.429688 L 545.832031 562.429688 C 549.101562 562.429688 551.75 559.78125 551.75 556.515625 C 551.75 553.246094 549.101562 550.597656 545.832031 550.597656 " fill-opacity="1" fill-rule="nonzero"/><path fill="#000000" d="M 397.550781 642.949219 L 390.074219 650.421875 C 387.761719 652.734375 387.761719 656.476562 390.074219 658.789062 C 391.230469 659.945312 392.742188 660.523438 394.257812 660.523438 C 395.773438 660.523438 397.289062 659.945312 398.445312 658.789062 L 405.921875 651.316406 C 408.234375 649.003906 408.234375 645.257812 405.921875 642.949219 C 403.609375 640.640625 399.863281 640.640625 397.550781 642.949219 " fill-opacity="1" fill-rule="nonzero"/><path fill="#000000" d="M 450.882812 589.648438 L 416.917969 623.59375 C 414.605469 625.902344 414.605469 629.648438 416.917969 631.960938 C 418.074219 633.113281 419.589844 633.691406 421.105469 633.691406 C 422.621094 633.691406 424.132812 633.113281 425.292969 631.960938 L 459.253906 598.015625 C 461.566406 595.703125 461.566406 591.960938 459.253906 589.648438 C 456.945312 587.339844 453.195312 587.339844 450.882812 589.648438 " fill-opacity="1" fill-rule="nonzero"/><path fill="#000000" d="M 540.578125 640.933594 C 538.480469 638.433594 534.746094 638.105469 532.242188 640.207031 C 529.734375 642.304688 529.410156 646.039062 531.511719 648.539062 L 538.96875 657.425781 C 540.140625 658.824219 541.820312 659.539062 543.507812 659.539062 C 544.851562 659.539062 546.203125 659.085938 547.3125 658.15625 C 549.816406 656.054688 550.144531 652.324219 548.042969 649.820312 L 540.578125 640.933594 " fill-opacity="1" fill-rule="nonzero"/><path fill="#000000" d="M 497.839844 590.027344 C 495.738281 587.527344 492.003906 587.199219 489.5 589.296875 C 486.996094 591.398438 486.667969 595.132812 488.769531 597.632812 L 511.394531 624.578125 C 512.566406 625.976562 514.242188 626.695312 515.933594 626.695312 C 517.277344 626.695312 518.628906 626.242188 519.734375 625.308594 C 522.238281 623.207031 522.566406 619.476562 520.464844 616.976562 L 497.839844 590.027344 " fill-opacity="1" fill-rule="nonzero"/><path fill="#000000" d="M 523.601562 455.082031 L 518.3125 464.230469 C 516.679688 467.058594 517.648438 470.675781 520.480469 472.3125 C 521.410156 472.851562 522.429688 473.105469 523.433594 473.105469 C 525.476562 473.105469 527.46875 472.042969 528.566406 470.148438 L 533.855469 460.996094 C 535.488281 458.164062 534.519531 454.546875 531.683594 452.914062 C 528.855469 451.28125 525.234375 452.25 523.601562 455.082031 " fill-opacity="1" fill-rule="nonzero"/><path fill="#000000" d="M 504.53125 488.085938 L 488.175781 516.390625 C 486.542969 519.222656 487.515625 522.839844 490.34375 524.472656 C 491.277344 525.011719 492.292969 525.269531 493.300781 525.269531 C 495.347656 525.269531 497.335938 524.207031 498.433594 522.308594 L 514.78125 494.003906 C 516.417969 491.175781 515.449219 487.554688 512.617188 485.925781 C 509.785156 484.289062 506.164062 485.257812 504.53125 488.085938 " fill-opacity="1" fill-rule="nonzero"/></svg>